<svg width="30" height="30" viewBox="0 0 30 30" fill="none" xmlns="http://www.w3.org/2000/svg">
<circle cx="15" cy="15" r="15" fill="#3B1B16"/>
<mask id="path-2-inside-1_724_1174" fill="white">
<path d="M14.9999 8.6926C14.2559 8.6926 13.5456 8.77715 12.8692 8.96317V7.37354C12.8692 5.59789 11.4317 4.14355 9.63917 4.14355C7.86352 4.14355 6.40918 5.58098 6.40918 7.37354V17.2834C6.40918 22.0184 10.248 25.8741 14.9999 25.8741C19.735 25.8741 23.5907 22.0353 23.5907 17.2834C23.5907 12.5314 19.735 8.6926 14.9999 8.6926ZM14.9999 24.572C10.9751 24.572 7.69441 21.3082 7.69441 17.2664V7.37354C7.69441 6.30815 8.55687 5.42879 9.63917 5.42879C10.7046 5.42879 11.5839 6.29124 11.5839 7.37354V17.2834C11.5839 19.1774 13.1228 20.6994 14.9999 20.6994C16.894 20.6994 18.4159 19.1605 18.4159 17.2834C18.4159 15.4062 16.8771 13.8673 14.9999 13.8673C14.1882 13.8673 13.4441 14.1548 12.8692 14.6114V13.0894C13.5118 12.7681 14.2389 12.5821 14.9999 12.5821C17.6042 12.5821 19.7181 14.696 19.7181 17.3003C19.7181 19.9045 17.6042 22.0184 14.9999 22.0184C12.3957 22.0184 10.2818 19.9045 10.2818 17.3003V7.37354C10.2818 7.01841 9.9943 6.73093 9.63917 6.73093C9.28404 6.73093 8.99656 7.01841 8.99656 7.37354V17.2834C8.99656 20.5979 11.6854 23.2867 14.9999 23.2867C18.3145 23.2867 21.0033 20.5979 21.0033 17.2834C21.0033 13.9688 18.3145 11.28 14.9999 11.28C14.2559 11.28 13.5287 11.4153 12.8692 11.6689V10.2991C13.5456 10.0962 14.2559 9.97783 14.9999 9.97783C19.0247 9.97783 22.3055 13.2416 22.3055 17.2834C22.3055 21.3082 19.0247 24.572 14.9999 24.572ZM12.8692 17.2834C12.8692 16.0996 13.8162 15.1526 14.9999 15.1526C16.1837 15.1526 17.1307 16.0996 17.1307 17.2834C17.1307 18.4671 16.1837 19.4141 14.9999 19.4141C13.8162 19.4141 12.8692 18.4671 12.8692 17.2834Z"/>
</mask>
<path d="M12.8692 8.96317H10.8692V11.5874L13.3995 10.8916L12.8692 8.96317ZM12.8692 14.6114H10.8692V18.7536L14.1129 16.1776L12.8692 14.6114ZM12.8692 13.0894L11.9747 11.3006L10.8692 11.8534V13.0894H12.8692ZM12.8692 11.6689H10.8692V14.581L13.5871 13.5356L12.8692 11.6689ZM12.8692 10.2991L12.2945 8.38348L10.8692 8.81107V10.2991H12.8692ZM22.3055 17.2834H24.3055H22.3055ZM14.9999 8.6926V6.6926C14.1041 6.6926 13.2126 6.79447 12.3388 7.03476L12.8692 8.96317L13.3995 10.8916C13.8786 10.7598 14.4076 10.6926 14.9999 10.6926V8.6926ZM12.8692 8.96317H14.8692V7.37354H12.8692H10.8692V8.96317H12.8692ZM12.8692 7.37354H14.8692C14.8692 4.50015 12.5431 2.14355 9.63917 2.14355V4.14355V6.14355C10.3203 6.14355 10.8692 6.69564 10.8692 7.37354H12.8692ZM9.63917 4.14355V2.14355C6.76578 2.14355 4.40918 4.4696 4.40918 7.37354H6.40918H8.40918C8.40918 6.69237 8.96126 6.14355 9.63917 6.14355V4.14355ZM6.40918 7.37354H4.40918V17.2834H6.40918H8.40918V7.37354H6.40918ZM6.40918 17.2834H4.40918C4.40918 23.1204 9.14083 27.8741 14.9999 27.8741V25.8741V23.8741C11.3551 23.8741 8.40918 20.9164 8.40918 17.2834H6.40918ZM14.9999 25.8741V27.8741C20.837 27.8741 25.5907 23.1425 25.5907 17.2834H23.5907H21.5907C21.5907 20.9282 18.633 23.8741 14.9999 23.8741V25.8741ZM23.5907 17.2834H25.5907C25.5907 11.4242 20.837 6.6926 14.9999 6.6926V8.6926V10.6926C18.633 10.6926 21.5907 13.6385 21.5907 17.2834H23.5907ZM14.9999 24.572V22.572C12.0767 22.572 9.69441 20.2006 9.69441 17.2664H7.69441H5.69441C5.69441 22.4157 9.87358 26.572 14.9999 26.572V24.572ZM7.69441 17.2664H9.69441V7.37354H7.69441H5.69441V17.2664H7.69441ZM7.69441 7.37354H9.69441C9.69441 7.37901 9.69297 7.38772 9.68943 7.39614C9.6864 7.40333 9.6828 7.40817 9.67938 7.4116C9.67587 7.41514 9.67013 7.41961 9.66125 7.42338C9.65092 7.42777 9.64192 7.42879 9.63917 7.42879V5.42879V3.42879C7.44099 3.42879 5.69441 5.21493 5.69441 7.37354H7.69441ZM9.63917 5.42879V7.42879C9.63371 7.42879 9.62499 7.42735 9.61657 7.42381C9.60938 7.42078 9.60455 7.41717 9.60111 7.41376C9.59757 7.41024 9.59311 7.40451 9.58933 7.39563C9.58494 7.3853 9.58393 7.3763 9.58393 7.37354H11.5839H13.5839C13.5839 5.17537 11.7978 3.42879 9.63917 3.42879V5.42879ZM11.5839 7.37354H9.58393V17.2834H11.5839H13.5839V7.37354H11.5839ZM11.5839 17.2834H9.58393C9.58393 20.2884 12.0247 22.6994 14.9999 22.6994V20.6994V18.6994C14.2209 18.6994 13.5839 18.0664 13.5839 17.2834H11.5839ZM14.9999 20.6994V22.6994C18.005 22.6994 20.4159 20.2586 20.4159 17.2834H18.4159H16.4159C16.4159 18.0624 15.783 18.6994 14.9999 18.6994V20.6994ZM18.4159 17.2834H20.4159C20.4159 14.3017 17.9816 11.8673 14.9999 11.8673V13.8673V15.8673C15.7725 15.8673 16.4159 16.5108 16.4159 17.2834H18.4159ZM14.9999 13.8673V11.8673C13.7116 11.8673 12.5341 12.3236 11.6254 13.0452L12.8692 14.6114L14.1129 16.1776C14.3542 15.986 14.6648 15.8673 14.9999 15.8673V13.8673ZM12.8692 14.6114H14.8692V13.0894H12.8692H10.8692V14.6114H12.8692ZM12.8692 13.0894L13.7636 14.8783C14.1438 14.6882 14.5662 14.5821 14.9999 14.5821V12.5821V10.5821C13.9117 10.5821 12.8797 10.8481 11.9747 11.3006L12.8692 13.0894ZM14.9999 12.5821V14.5821C16.4997 14.5821 17.7181 15.8005 17.7181 17.3003H19.7181H21.7181C21.7181 13.5914 18.7088 10.5821 14.9999 10.5821V12.5821ZM19.7181 17.3003H17.7181C17.7181 18.8 16.4997 20.0184 14.9999 20.0184V22.0184V24.0184C18.7088 24.0184 21.7181 21.0091 21.7181 17.3003H19.7181ZM14.9999 22.0184V20.0184C13.5002 20.0184 12.2818 18.8 12.2818 17.3003H10.2818H8.28179C8.28179 21.0091 11.2911 24.0184 14.9999 24.0184V22.0184ZM10.2818 17.3003H12.2818V7.37354H10.2818H8.28179V17.3003H10.2818ZM10.2818 7.37354H12.2818C12.2818 5.91383 11.0989 4.73093 9.63917 4.73093V6.73093V8.73093C8.88974 8.73093 8.28179 8.123 8.28179 7.37354H10.2818ZM9.63917 6.73093V4.73093C8.17946 4.73093 6.99656 5.91385 6.99656 7.37354H8.99656H10.9966C10.9966 8.12298 10.3886 8.73093 9.63917 8.73093V6.73093ZM8.99656 7.37354H6.99656V17.2834H8.99656H10.9966V7.37354H8.99656ZM8.99656 17.2834H6.99656C6.99656 21.7025 10.5808 25.2867 14.9999 25.2867V23.2867V21.2867C12.79 21.2867 10.9966 19.4933 10.9966 17.2834H8.99656ZM14.9999 23.2867V25.2867C19.4191 25.2867 23.0033 21.7025 23.0033 17.2834H21.0033H19.0033C19.0033 19.4933 17.2099 21.2867 14.9999 21.2867V23.2867ZM21.0033 17.2834H23.0033C23.0033 12.8642 19.4191 9.27997 14.9999 9.27997V11.28V13.28C17.2099 13.28 19.0033 15.0734 19.0033 17.2834H21.0033ZM14.9999 11.28V9.27997C14.0163 9.27997 13.0453 9.45834 12.1512 9.80223L12.8692 11.6689L13.5871 13.5356C14.0121 13.3722 14.4954 13.28 14.9999 13.28V11.28ZM12.8692 11.6689H14.8692V10.2991H12.8692H10.8692V11.6689H12.8692ZM12.8692 10.2991L13.4439 12.2148C13.9546 12.0616 14.471 11.9778 14.9999 11.9778V9.97783V7.97783C14.0407 7.97783 13.1366 8.13083 12.2945 8.38348L12.8692 10.2991ZM14.9999 9.97783V11.9778C17.9232 11.9778 20.3055 14.3492 20.3055 17.2834H22.3055H24.3055C24.3055 12.1341 20.1263 7.97783 14.9999 7.97783V9.97783ZM22.3055 17.2834L20.3055 17.2834C20.3055 20.1976 17.9262 22.572 14.9999 22.572V24.572V26.572C20.1233 26.572 24.3055 22.4188 24.3055 17.2834L22.3055 17.2834ZM12.8692 17.2834H14.8692C14.8692 17.2367 14.8846 17.2085 14.9049 17.1883C14.9251 17.168 14.9533 17.1526 14.9999 17.1526V15.1526V13.1526C12.7116 13.1526 10.8692 14.995 10.8692 17.2834H12.8692ZM14.9999 15.1526V17.1526C15.0465 17.1526 15.0747 17.168 15.095 17.1883C15.1153 17.2085 15.1307 17.2367 15.1307 17.2834H17.1307H19.1307C19.1307 14.995 17.2883 13.1526 14.9999 13.1526V15.1526ZM17.1307 17.2834H15.1307C15.1307 17.33 15.1153 17.3582 15.095 17.3784C15.0747 17.3987 15.0465 17.4141 14.9999 17.4141V19.4141V21.4141C17.2883 21.4141 19.1307 19.5717 19.1307 17.2834H17.1307ZM14.9999 19.4141V17.4141C14.9533 17.4141 14.9251 17.3987 14.9049 17.3784C14.8846 17.3582 14.8692 17.33 14.8692 17.2834H12.8692H10.8692C10.8692 19.5717 12.7116 21.4141 14.9999 21.4141V19.4141Z" fill="white" mask="url(#path-2-inside-1_724_1174)"/>
</svg>
