<svg width="32" height="27" viewBox="0 0 32 27" fill="none" xmlns="http://www.w3.org/2000/svg">
<g clip-path="url(#clip0_583_137)">
<path d="M8.6176 9.34357C8.6176 9.34357 -0.533304 12.0026 0.593144 16.9767C0.713229 17.4786 0.9453 17.9468 1.27198 18.3463C1.89044 19.1162 2.67071 19.7406 3.55748 20.1752C5.08115 20.9223 9.91894 10.3396 9.91894 10.3396L8.6176 9.34357Z" fill="#89582F"/>
<path d="M4.04972 20.9223C3.80185 20.8488 3.56466 20.7431 3.3442 20.6081C2.39241 20.1426 1.5545 19.4737 0.889733 18.6486C0.513488 18.1919 0.245895 17.6557 0.107149 17.0805C-1.08748 11.7269 8.09307 8.99676 8.48436 8.89301L8.71854 8.82483L10.5149 10.2003L10.3549 10.5501C9.63749 12.1182 6.29668 20.1931 4.39951 20.8719C4.28647 20.9078 4.16829 20.9248 4.04972 20.9223ZM8.5229 9.88013C7.15337 10.3248 0.139756 12.8119 1.04981 16.873C1.15269 17.3089 1.35567 17.7149 1.64267 18.0587C2.21926 18.7743 2.94713 19.3534 3.77403 19.7543C4.56255 19.6595 7.25416 14.961 9.32327 10.4997L8.5229 9.88013Z" fill="#3C1B16"/>
<path d="M25.8103 22.609C25.8103 22.609 26.3202 15.4679 24.1088 11.7417L7.32771 9.61334C7.32771 9.61334 2.76856 14.8958 3.93651 19.7692C3.93651 19.7692 5.20525 24.5625 11.9402 25.4992C18.6752 26.4359 22.4873 25.351 25.8103 22.609Z" fill="#F9E0AF"/>
<path d="M16.2622 26.3144C14.7878 26.3045 13.3158 26.1916 11.8572 25.9765C4.89989 25.0042 3.52443 20.1012 3.47108 19.8937C2.2557 14.8247 6.77038 9.5185 6.96306 9.29617L7.13203 9.10052L24.4022 11.2941L24.5208 11.4957C26.7856 15.3078 26.2994 22.3452 26.2994 22.6446V22.8491L26.1394 22.9825C23.3558 25.2591 20.3352 26.3144 16.2622 26.3144ZM7.53222 10.1232C6.74963 11.1074 3.42958 15.5924 4.40484 19.6565C4.45227 19.8285 5.69433 24.1416 11.9965 25.022C18.0556 25.8668 21.9419 25.099 25.336 22.3541C25.3923 21.195 25.585 15.4235 23.8035 12.1745L7.53222 10.1232Z" fill="#3C1B16"/>
<path d="M22.9177 11.6795C22.9177 11.6795 22.0284 26.4034 28.7605 22.944C28.7605 22.944 30.9511 22.1881 31.4461 20.0982C31.561 19.5267 31.5304 18.9355 31.3572 18.3789C30.96 16.793 29.3474 13.3395 27.2309 11.6795H22.9177Z" fill="#89582F"/>
<path d="M26.8689 23.9459C26.2919 23.9499 25.7266 23.7828 25.2445 23.4657C21.8859 21.2721 22.4135 12.0441 22.4372 11.6499L22.4639 11.1993H27.3936L27.527 11.3001C29.685 12.9808 31.3806 16.4432 31.8253 18.2544C32.0176 18.8859 32.0482 19.5556 31.9142 20.202C31.3955 22.3956 29.2671 23.2612 28.9499 23.3768C28.3105 23.7272 27.5976 23.9221 26.8689 23.9459ZM23.3769 12.1538C23.2672 14.9551 23.5044 21.1683 25.7721 22.6475C26.5043 23.1278 27.4055 23.0863 28.5378 22.5023L28.6623 22.443C28.6801 22.443 30.598 21.5241 30.9775 19.9707C31.0724 19.477 31.0418 18.9674 30.8886 18.4886C30.5328 17.0657 29.0507 13.799 27.0586 12.1538H23.3769Z" fill="#3C1B16"/>
<path d="M9.83592 17.1101C10.481 17.1101 11.0039 16.5872 11.0039 15.9422C11.0039 15.2971 10.481 14.7742 9.83592 14.7742C9.19088 14.7742 8.66797 15.2971 8.66797 15.9422C8.66797 16.5872 9.19088 17.1101 9.83592 17.1101Z" fill="#3C1B16"/>
<path d="M17.4658 17.8127C18.1108 17.8127 18.6337 17.2898 18.6337 16.6448C18.6337 15.9997 18.1108 15.4768 17.4658 15.4768C16.8208 15.4768 16.2979 15.9997 16.2979 16.6448C16.2979 17.2898 16.8208 17.8127 17.4658 17.8127Z" fill="#3C1B16"/>
<path d="M12.9989 20.694C13.914 20.694 14.6559 20.2282 14.6559 19.6535C14.6559 19.0789 13.914 18.613 12.9989 18.613C12.0837 18.613 11.3418 19.0789 11.3418 19.6535C11.3418 20.2282 12.0837 20.694 12.9989 20.694Z" fill="#3C1B16"/>
<path d="M14.0979 21.9628H14.0683C13.428 21.9628 12.927 21.4648 12.675 21.1594C12.1088 21.61 11.5604 21.776 11.0595 21.6397C10.1524 21.4144 9.75516 20.3265 9.74034 20.282C9.72847 20.2489 9.72323 20.2138 9.72492 20.1787C9.72661 20.1436 9.73521 20.1091 9.75021 20.0774C9.78051 20.0131 9.83507 19.9636 9.9019 19.9396C9.96872 19.9156 10.0423 19.9192 10.1065 19.9495C10.1708 19.9798 10.2203 20.0343 10.2443 20.1012C10.2443 20.1012 10.5615 20.9668 11.1899 21.1209C11.5782 21.2187 12.0288 21.026 12.5357 20.5636L12.7729 20.3443L12.9448 20.617C12.9448 20.617 13.4487 21.4055 14.0831 21.4173C14.4625 21.4173 14.8153 21.1683 15.171 20.6496C15.1871 20.6138 15.2109 20.582 15.2405 20.5563C15.2702 20.5307 15.3051 20.5118 15.3429 20.501C15.3806 20.4902 15.4202 20.4878 15.459 20.4939C15.4977 20.5001 15.5347 20.5146 15.5673 20.5364C15.5998 20.5583 15.6273 20.587 15.6476 20.6205C15.6679 20.6541 15.6807 20.6917 15.6851 20.7307C15.6894 20.7697 15.6851 20.8091 15.6726 20.8463C15.6601 20.8835 15.6397 20.9175 15.6127 20.946C15.1562 21.6397 14.6463 21.9628 14.0979 21.9628Z" fill="#3C1B16"/>
<path d="M27.4942 11.3386C27.6365 11.9107 27.6099 12.1686 26.8658 12.2012C13.5263 12.794 7.1263 10.2714 7.1263 10.2714C6.56011 9.99571 6.72908 10.0254 6.82986 9.44138C6.82986 9.44138 8.67072 2.34773 17.7149 3.10363C25.3777 3.74689 26.8806 8.83666 27.4942 11.3386Z" fill="#BF2B2A"/>
<path d="M28.0157 11.1874C27.4851 9.02342 26.074 3.2815 17.8124 2.59081C8.46885 1.79637 6.43829 9.21017 6.41161 9.32281C6.38493 9.43546 6.37011 9.51846 6.35232 9.58664C6.18632 10.2329 6.48868 10.4344 7.00151 10.6834C7.23866 10.7783 12.3373 12.7407 22.8607 12.7407C24.1413 12.7407 26.1808 12.6844 27.6214 12.6192C27.9564 12.6192 27.8467 13.0016 28.0868 12.6814C28.3269 12.3613 28.0839 11.4542 28.0157 11.1874ZM26.8981 11.6824C13.8551 12.2753 7.41948 9.81193 7.38984 9.80304L7.30091 9.75857C7.32255 9.68264 7.33938 9.60541 7.3513 9.52735C7.42541 9.25463 9.21883 2.83981 17.7265 3.54829C21.3963 3.84472 23.5959 5.17571 24.9743 6.85945C24.3392 7.36281 23.5461 7.62438 22.7362 7.59757C22.7012 7.59446 22.6659 7.59827 22.6323 7.6088C22.5987 7.61933 22.5676 7.63637 22.5406 7.65894C22.5136 7.68152 22.4914 7.70918 22.4751 7.74036C22.4588 7.77153 22.4488 7.80561 22.4457 7.84065C22.4426 7.87568 22.4464 7.91099 22.4569 7.94455C22.4675 7.97811 22.4845 8.00927 22.5071 8.03624C22.5296 8.06322 22.5573 8.08548 22.5885 8.10177C22.6197 8.11805 22.6537 8.12804 22.6888 8.13115C22.75 8.1345 22.8113 8.1345 22.8726 8.13115C23.7549 8.13141 24.6111 7.83137 25.3004 7.28039C25.4189 7.44639 25.5345 7.61239 25.6383 7.78432C25.1244 8.17848 24.5058 8.41252 23.8597 8.45723C23.7934 8.46421 23.732 8.49548 23.6874 8.54502C23.6428 8.59455 23.6182 8.65885 23.6182 8.7255C23.6182 8.79215 23.6428 8.85645 23.6874 8.90599C23.732 8.95552 23.7934 8.9868 23.8597 8.99377C24.59 8.94456 25.2908 8.68627 25.8784 8.24973C26.3958 9.25056 26.7862 10.3121 27.0404 11.4097C27.0671 11.5283 27.0819 11.6054 27.0878 11.6528C27.0254 11.6671 26.962 11.677 26.8981 11.6824Z" fill="#3C1B16"/>
<path d="M18.1743 4.78148C17.8794 4.71934 17.6208 4.54364 17.4544 4.29236C17.288 4.04108 17.2272 3.73441 17.285 3.43864C17.5281 2.22919 18.121 0.474304 19.5201 0.474304C20.9727 0.49209 21.361 1.68375 21.4618 2.43077C21.486 2.60143 21.472 2.77536 21.4208 2.93994C21.3695 3.10452 21.2822 3.25563 21.1653 3.38232L20.0211 4.60659C19.8835 4.75353 19.71 4.862 19.5176 4.92127C19.3252 4.98054 19.1207 4.98855 18.9243 4.94452L18.1743 4.78148Z" fill="#BF2B2A"/>
<path d="M19.1825 5.46327C19.0618 5.46264 18.9415 5.44872 18.8239 5.42177L18.0828 5.2528C17.668 5.15821 17.3061 4.90636 17.0733 4.55027C16.8405 4.19418 16.755 3.76165 16.8348 3.34377C17.2557 1.18573 18.2102 0 19.5086 0H19.5353C20.8693 0.0148217 21.7497 0.889301 21.9364 2.37147C21.9705 2.61344 21.9498 2.85996 21.8759 3.09288C21.802 3.32579 21.6768 3.53917 21.5095 3.71728L20.3683 4.93858C20.2164 5.10166 20.033 5.23224 19.8292 5.32243C19.6254 5.41261 19.4054 5.46052 19.1825 5.46327ZM18.2932 4.31311L19.0492 4.48208C19.1632 4.50794 19.2821 4.50348 19.3939 4.46916C19.5057 4.43484 19.6066 4.37184 19.6865 4.28643L20.8307 3.06216C20.8995 2.98814 20.9509 2.8997 20.9812 2.80328C21.0114 2.70687 21.0198 2.60492 21.0056 2.50486C20.8693 1.49403 20.3742 0.975266 19.5234 0.963409C18.4563 0.963409 17.9701 2.57304 17.7774 3.53349C17.7457 3.70494 17.7817 3.88205 17.8779 4.02748C17.9741 4.17292 18.123 4.27532 18.2932 4.31311Z" fill="#3C1B16"/>
</g>
<defs>
<clipPath id="clip0_583_137">
<rect width="32" height="26.3144" fill="white"/>
</clipPath>
</defs>
</svg>
