<svg width="30" height="30" viewBox="0 0 30 30" fill="none" xmlns="http://www.w3.org/2000/svg">
<mask id="mask0_581_2026" style="mask-type:alpha" maskUnits="userSpaceOnUse" x="0" y="0" width="30" height="30">
<rect width="30" height="30" fill="#D9D9D9"/>
</mask>
<g mask="url(#mask0_581_2026)">
<path d="M24.5 23.3008L16.625 16.0225C16 16.4846 15.2812 16.8505 14.4688 17.12C13.6562 17.3896 12.7917 17.5244 11.875 17.5244C9.60417 17.5244 7.68229 16.7975 6.10938 15.3438C4.53646 13.89 3.75 12.1138 3.75 10.015C3.75 7.91626 4.53646 6.14001 6.10938 4.68628C7.68229 3.23254 9.60417 2.50568 11.875 2.50568C14.1458 2.50568 16.0677 3.23254 17.6406 4.68628C19.2135 6.14001 20 7.91626 20 10.015C20 10.8622 19.8542 11.6613 19.5625 12.4122C19.2708 13.1632 18.875 13.8275 18.375 14.4051L26.25 21.6834L24.5 23.3008ZM11.875 15.2138C13.4375 15.2138 14.7656 14.7084 15.8594 13.6975C16.9531 12.6866 17.5 11.4591 17.5 10.015C17.5 8.57092 16.9531 7.34343 15.8594 6.33255C14.7656 5.32168 13.4375 4.81624 11.875 4.81624C10.3125 4.81624 8.98438 5.32168 7.89062 6.33255C6.79688 7.34343 6.25 8.57092 6.25 10.015C6.25 11.4591 6.79688 12.6866 7.89062 13.6975C8.98438 14.7084 10.3125 15.2138 11.875 15.2138Z" fill="#3B1B16"/>
</g>
</svg>
