<svg width="30" height="30" viewBox="0 0 30 30" fill="none" xmlns="http://www.w3.org/2000/svg">
<mask id="mask0_581_2020" style="mask-type:alpha" maskUnits="userSpaceOnUse" x="0" y="0" width="30" height="30">
<rect width="30" height="30" fill="#D9D9D9"/>
</mask>
<g mask="url(#mask0_581_2020)">
<path d="M7.5 24.4561C6.8125 24.4561 6.22396 24.2298 5.73438 23.7774C5.24479 23.3249 5 22.7809 5 22.1455V8.28211C5 7.6467 5.24479 7.10275 5.73438 6.65027C6.22396 6.19778 6.8125 5.97154 7.5 5.97154H10C10 4.70073 10.4896 3.61283 11.4688 2.70786C12.4479 1.80289 13.625 1.3504 15 1.3504C16.375 1.3504 17.5521 1.80289 18.5313 2.70786C19.5104 3.61283 20 4.70073 20 5.97154H22.5C23.1875 5.97154 23.776 6.19778 24.2656 6.65027C24.7552 7.10275 25 7.6467 25 8.28211V22.1455C25 22.7809 24.7552 23.3249 24.2656 23.7774C23.776 24.2298 23.1875 24.4561 22.5 24.4561H7.5ZM7.5 22.1455H22.5V8.28211H20V10.5927C20 10.92 19.8802 11.1944 19.6406 11.4158C19.401 11.6372 19.1042 11.748 18.75 11.748C18.3958 11.748 18.099 11.6372 17.8594 11.4158C17.6198 11.1944 17.5 10.92 17.5 10.5927V8.28211H12.5V10.5927C12.5 10.92 12.3802 11.1944 12.1406 11.4158C11.901 11.6372 11.6042 11.748 11.25 11.748C10.8958 11.748 10.599 11.6372 10.3594 11.4158C10.1198 11.1944 10 10.92 10 10.5927V8.28211H7.5V22.1455ZM12.5 5.97154H17.5C17.5 5.33613 17.2552 4.79219 16.7656 4.3397C16.276 3.88721 15.6875 3.66097 15 3.66097C14.3125 3.66097 13.724 3.88721 13.2344 4.3397C12.7448 4.79219 12.5 5.33613 12.5 5.97154Z" fill="#3B1B16"/>
</g>
</svg>
