<svg width="30" height="30" viewBox="0 0 30 30" fill="none" xmlns="http://www.w3.org/2000/svg">
<mask id="mask0_581_2023" style="mask-type:alpha" maskUnits="userSpaceOnUse" x="0" y="0" width="30" height="30">
<rect width="30" height="30" fill="#D9D9D9"/>
</mask>
<g mask="url(#mask0_581_2023)">
<path d="M15 12.9033C13.625 12.9033 12.4479 12.4508 11.4688 11.5458C10.4896 10.6408 10 9.55293 10 8.28212C10 7.0113 10.4896 5.92341 11.4688 5.01844C12.4479 4.11347 13.625 3.66098 15 3.66098C16.375 3.66098 17.5521 4.11347 18.5313 5.01844C19.5104 5.92341 20 7.0113 20 8.28212C20 9.55293 19.5104 10.6408 18.5313 11.5458C17.5521 12.4508 16.375 12.9033 15 12.9033ZM5 22.1455V18.9107C5 18.2561 5.18229 17.6544 5.54688 17.1056C5.91146 16.5568 6.39583 16.138 7 15.8492C8.29167 15.2523 9.60417 14.8047 10.9375 14.5062C12.2708 14.2078 13.625 14.0585 15 14.0585C16.375 14.0585 17.7292 14.2078 19.0625 14.5062C20.3958 14.8047 21.7083 15.2523 23 15.8492C23.6042 16.138 24.0885 16.5568 24.4531 17.1056C24.8177 17.6544 25 18.2561 25 18.9107V22.1455H5ZM7.5 19.835H22.5V18.9107C22.5 18.6989 22.4427 18.5064 22.3281 18.3331C22.2135 18.1598 22.0625 18.025 21.875 17.9287C20.75 17.4089 19.6146 17.019 18.4688 16.759C17.3229 16.4991 16.1667 16.3691 15 16.3691C13.8333 16.3691 12.6771 16.4991 11.5313 16.759C10.3854 17.019 9.25 17.4089 8.125 17.9287C7.9375 18.025 7.78646 18.1598 7.67188 18.3331C7.55729 18.5064 7.5 18.6989 7.5 18.9107V19.835ZM15 10.5927C15.6875 10.5927 16.276 10.3664 16.7656 9.91396C17.2552 9.46147 17.5 8.91752 17.5 8.28212C17.5 7.64671 17.2552 7.10276 16.7656 6.65028C16.276 6.19779 15.6875 5.97155 15 5.97155C14.3125 5.97155 13.724 6.19779 13.2344 6.65028C12.7448 7.10276 12.5 7.64671 12.5 8.28212C12.5 8.91752 12.7448 9.46147 13.2344 9.91396C13.724 10.3664 14.3125 10.5927 15 10.5927Z" fill="#3B1B16"/>
</g>
</svg>
