<svg width="30" height="30" viewBox="0 0 30 30" fill="none" xmlns="http://www.w3.org/2000/svg">
<circle cx="15" cy="15" r="15" fill="#3B1B16"/>
<path d="M15.043 7.23926C19.7038 7.23926 23.4854 10.2441 23.4854 13.9053C23.4853 17.5664 19.7163 20.5771 15.0557 20.5771C14.5461 20.5747 14.037 20.5384 13.5322 20.4688L10.1113 22.7754C10.0708 22.8101 10.02 22.8307 9.9668 22.835C9.90281 22.8347 9.84106 22.8117 9.79297 22.7695C9.75994 22.7363 9.73625 22.6941 9.72559 22.6484C9.71495 22.6027 9.71743 22.5543 9.73242 22.5098L10.5273 19.541C8.17893 18.3548 6.61332 16.2778 6.61328 13.9053C6.61328 10.2502 10.3764 7.23945 15.043 7.23926ZM12.665 11.918C12.56 11.9134 12.4557 11.9384 12.3643 11.9902C12.2783 12.0462 12.2159 12.1324 12.1895 12.2314L10.9131 15.6934C10.889 15.7596 10.8467 15.8322 10.8467 15.8984C10.8364 15.9582 10.8363 16.0194 10.8467 16.0791C10.8435 16.1131 10.8435 16.1476 10.8467 16.1816C10.8644 16.2814 10.9178 16.3715 10.9971 16.4346C11.0785 16.4957 11.1785 16.527 11.2803 16.5244C11.3743 16.5362 11.4697 16.5153 11.5498 16.4648C11.6298 16.4144 11.6898 16.3377 11.7197 16.248L11.9727 15.5068H13.5566L13.8096 16.248C13.8403 16.336 13.9 16.4108 13.9785 16.4609C14.0572 16.5112 14.1503 16.5336 14.2432 16.5244C14.3035 16.5259 14.364 16.515 14.4199 16.4922C14.4756 16.4694 14.5263 16.4356 14.5684 16.3926C14.6119 16.3532 14.6461 16.3041 14.6689 16.25C14.6918 16.196 14.7032 16.1377 14.7012 16.0791C14.7032 16.0411 14.7032 16.0029 14.7012 15.9648C14.6803 15.8731 14.6533 15.7821 14.6221 15.6934L13.418 12.291C13.3891 12.1707 13.3165 12.0652 13.2139 11.9961C13.1169 11.941 13.006 11.914 12.8945 11.918H12.665ZM8.6543 11.9961C8.52482 11.9944 8.39789 12.0345 8.29297 12.1104C8.24548 12.1471 8.20778 12.1955 8.18262 12.25C8.15752 12.3045 8.14558 12.3639 8.14844 12.4238C8.14551 12.4559 8.14551 12.4885 8.14844 12.5205C8.15804 12.5709 8.17809 12.6188 8.20703 12.6611C8.23593 12.7034 8.27305 12.7393 8.31641 12.7666C8.41449 12.8249 8.52754 12.8548 8.6416 12.8516H9.56348L9.56934 16.0186C9.56339 16.0625 9.56339 16.1074 9.56934 16.1514C9.58912 16.2581 9.64668 16.3541 9.73145 16.4219C9.82076 16.4913 9.93187 16.5276 10.0449 16.5244C10.1096 16.527 10.1742 16.516 10.2344 16.4922C10.2945 16.4683 10.3492 16.4319 10.3945 16.3857C10.4417 16.3375 10.4782 16.2799 10.502 16.2168C10.5258 16.1536 10.5368 16.086 10.5332 16.0186V12.8516H11.4238C11.5512 12.8574 11.6769 12.8191 11.7793 12.7432C11.8269 12.7052 11.8645 12.6561 11.8896 12.6006C11.9147 12.5451 11.9267 12.4846 11.9238 12.4238C11.9268 12.394 11.9267 12.3639 11.9238 12.334C11.9158 12.283 11.8963 12.2341 11.8672 12.1914C11.838 12.1487 11.7995 12.113 11.7549 12.0869C11.6584 12.0241 11.5448 11.9921 11.4297 11.9961H8.6543ZM20.9326 11.918C20.8608 11.9166 20.7903 11.9359 20.7285 11.9727C20.6629 12.025 20.5997 12.0806 20.541 12.1406L19.0176 13.8994V12.2979C18.9981 12.1891 18.9409 12.0905 18.8555 12.0205C18.7569 11.9487 18.6364 11.9133 18.5146 11.9199C18.3929 11.9265 18.2767 11.9747 18.1865 12.0566C18.0979 12.158 18.0511 12.2892 18.0547 12.4238L18.0186 15.9883C18.0126 16.0322 18.0126 16.0772 18.0186 16.1211C18.0383 16.228 18.0956 16.3248 18.1807 16.3926C18.2682 16.4611 18.3772 16.4965 18.4883 16.4941C18.5546 16.4969 18.6207 16.4866 18.6826 16.4629C18.7447 16.4391 18.802 16.4029 18.8496 16.3564C18.9384 16.255 18.9851 16.123 18.9814 15.9883V14.9834L19.5176 14.4229L20.6377 16.2295C20.684 16.3141 20.75 16.3867 20.8301 16.4404C20.9042 16.4794 20.9877 16.4976 21.0713 16.4941C21.1972 16.4959 21.3204 16.4558 21.4209 16.3799C21.4742 16.3345 21.5158 16.2768 21.542 16.2119C21.5682 16.1469 21.5782 16.0765 21.5713 16.0068V15.9766C21.5381 15.8754 21.4893 15.7796 21.4268 15.6934V15.6338L20.2227 13.7666L21.2217 12.6709C21.2658 12.6211 21.304 12.5661 21.3359 12.5078C21.3672 12.4528 21.3846 12.3904 21.3848 12.3271V12.249C21.3762 12.2006 21.3578 12.1545 21.3311 12.1133C21.3042 12.0719 21.2685 12.0364 21.2275 12.0088C21.1407 11.9494 21.0378 11.9174 20.9326 11.918ZM15.3262 11.918C15.2606 11.915 15.1949 11.9254 15.1338 11.9492C15.0726 11.9731 15.0169 12.01 14.9707 12.0566C14.8799 12.1567 14.8328 12.2888 14.8389 12.4238L14.8564 15.8506C14.8521 15.9166 14.8521 15.9828 14.8564 16.0488C14.8748 16.1688 14.94 16.2768 15.0371 16.3496C15.1458 16.4204 15.2748 16.4545 15.4043 16.4463H17.4404C17.5699 16.4479 17.6969 16.408 17.8018 16.332C17.8491 16.2954 17.887 16.2477 17.9121 16.1934C17.9373 16.1388 17.9492 16.0785 17.9463 16.0186V15.9287C17.9371 15.878 17.9167 15.8296 17.8877 15.7871C17.8587 15.7446 17.8211 15.7086 17.7773 15.6816C17.6798 15.6212 17.5669 15.5903 17.4521 15.5918H15.7959V12.4238C15.8018 12.382 15.8018 12.3396 15.7959 12.2979C15.7785 12.1898 15.7232 12.0911 15.6396 12.0205C15.5494 11.9528 15.439 11.9167 15.3262 11.918ZM13.3584 14.8262H12.2197L12.792 13.0195L13.3584 14.8262Z" fill="white"/>
</svg>
