<svg width="190" height="60" viewBox="0 0 190 60" fill="none" xmlns="http://www.w3.org/2000/svg">
<path d="M95.1345 52.33H95.9845V55.78H95.1345V52.33ZM98.2445 52.33H99.0845V55.78H98.2445V52.33ZM93.0245 51.88H101.225V52.56H93.0245V51.88ZM97.1045 47.09C97.7378 47.09 98.2912 47.1733 98.7645 47.34C99.2378 47.5 99.6078 47.7267 99.8745 48.02C100.141 48.3133 100.275 48.6633 100.275 49.07C100.275 49.4633 100.141 49.81 99.8745 50.11C99.6078 50.4033 99.2378 50.63 98.7645 50.79C98.2912 50.95 97.7378 51.03 97.1045 51.03C96.4845 51.03 95.9345 50.95 95.4545 50.79C94.9812 50.63 94.6112 50.4033 94.3445 50.11C94.0778 49.81 93.9445 49.4633 93.9445 49.07C93.9445 48.6633 94.0778 48.3133 94.3445 48.02C94.6112 47.7267 94.9812 47.5 95.4545 47.34C95.9345 47.1733 96.4845 47.09 97.1045 47.09ZM97.1045 47.76C96.6512 47.76 96.2478 47.8133 95.8945 47.92C95.5478 48.0267 95.2778 48.18 95.0845 48.38C94.8912 48.5733 94.7945 48.8033 94.7945 49.07C94.7945 49.33 94.8912 49.56 95.0845 49.76C95.2778 49.9533 95.5478 50.1033 95.8945 50.21C96.2478 50.31 96.6512 50.36 97.1045 50.36C97.5712 50.36 97.9778 50.31 98.3245 50.21C98.6712 50.1033 98.9412 49.9533 99.1345 49.76C99.3278 49.56 99.4245 49.33 99.4245 49.07C99.4245 48.8033 99.3278 48.5733 99.1345 48.38C98.9412 48.18 98.6712 48.0267 98.3245 47.92C97.9778 47.8133 97.5712 47.76 97.1045 47.76ZM111.824 46.73H112.654V55.78H111.824V46.73ZM109.174 47.71H109.994C109.994 48.3633 109.914 48.9933 109.754 49.6C109.6 50.2067 109.357 50.7833 109.024 51.33C108.69 51.87 108.257 52.3733 107.724 52.84C107.19 53.3067 106.544 53.7233 105.784 54.09L105.344 53.42C106.217 53 106.937 52.51 107.504 51.95C108.07 51.39 108.49 50.7667 108.764 50.08C109.037 49.3867 109.174 48.64 109.174 47.84V47.71ZM105.764 47.71H109.524V48.38H105.764V47.71ZM117.433 51.19H125.613V51.86H117.433V51.19ZM121.113 49.74H121.923V51.47H121.113V49.74ZM118.463 49.48H124.653V50.15H118.463V49.48ZM118.463 47.15H124.593V47.81H119.283V49.88H118.463V47.15ZM121.513 52.51C122.48 52.51 123.236 52.6533 123.783 52.94C124.33 53.22 124.603 53.62 124.603 54.14C124.603 54.66 124.33 55.06 123.783 55.34C123.236 55.6267 122.48 55.77 121.513 55.77C120.546 55.77 119.786 55.6267 119.233 55.34C118.686 55.06 118.413 54.66 118.413 54.14C118.413 53.62 118.686 53.22 119.233 52.94C119.786 52.6533 120.546 52.51 121.513 52.51ZM121.503 53.16C121.036 53.16 120.633 53.2 120.293 53.28C119.96 53.3533 119.703 53.4633 119.523 53.61C119.343 53.75 119.253 53.9267 119.253 54.14C119.253 54.3467 119.343 54.5233 119.523 54.67C119.703 54.8167 119.96 54.9267 120.293 55C120.633 55.08 121.036 55.12 121.503 55.12C121.983 55.12 122.39 55.08 122.723 55C123.063 54.9267 123.323 54.8167 123.503 54.67C123.683 54.5233 123.773 54.3467 123.773 54.14C123.773 53.9267 123.683 53.75 123.503 53.61C123.323 53.4633 123.063 53.3533 122.723 53.28C122.39 53.2 121.983 53.16 121.503 53.16ZM133.292 51.01H134.122V52.39H133.292V51.01ZM129.632 50.54H137.802V51.21H129.632V50.54ZM130.692 47.03H136.742V49.79H130.692V47.03ZM135.922 47.69H131.502V49.13H135.922V47.69ZM130.622 52.09H136.752V54.13H131.452V55.23H130.642V53.52H135.942V52.73H130.622V52.09ZM130.642 55.03H137.022V55.68H130.642V55.03ZM142.591 47.01H149.221V47.65H142.591V47.01ZM142.621 49.37H149.191V50.01H142.621V49.37ZM143.951 47.25H144.781V49.8H143.951V47.25ZM147.031 47.25H147.861V49.8H147.031V47.25ZM141.831 50.76H150.001V51.43H141.831V50.76ZM142.821 52.22H148.951V54.21H143.651V55.3H142.841V53.61H148.141V52.84H142.821V52.22ZM142.841 55.04H149.221V55.68H142.841V55.04ZM160.861 46.74H161.651V52.89H160.861V46.74ZM159.411 49.1H161.111V49.78H159.411V49.1ZM158.861 46.91H159.641V52.11H158.861V46.91ZM154.441 51.31H155.031C155.457 51.31 155.851 51.3033 156.211 51.29C156.577 51.2767 156.934 51.25 157.281 51.21C157.627 51.17 157.981 51.11 158.341 51.03L158.431 51.7C158.051 51.7733 157.684 51.83 157.331 51.87C156.977 51.91 156.614 51.9367 156.241 51.95C155.867 51.9633 155.464 51.97 155.031 51.97H154.441V51.31ZM154.421 47.44H157.821V49.98H155.241V51.75H154.441V49.35H157.021V48.12H154.421V47.44ZM158.231 52.48H158.941V52.71C158.941 53.11 158.847 53.48 158.661 53.82C158.474 54.1533 158.217 54.45 157.891 54.71C157.571 54.97 157.204 55.1867 156.791 55.36C156.384 55.54 155.954 55.6667 155.501 55.74L155.171 55.09C155.484 55.0433 155.791 54.97 156.091 54.87C156.397 54.7633 156.677 54.6367 156.931 54.49C157.191 54.3433 157.417 54.1767 157.611 53.99C157.804 53.8033 157.954 53.6033 158.061 53.39C158.174 53.1767 158.231 52.95 158.231 52.71V52.48ZM158.351 52.48H159.061V52.71C159.061 52.95 159.114 53.1767 159.221 53.39C159.334 53.6033 159.487 53.8033 159.681 53.99C159.874 54.1767 160.097 54.3433 160.351 54.49C160.611 54.6367 160.891 54.7633 161.191 54.87C161.497 54.97 161.807 55.0433 162.121 55.09L161.791 55.74C161.337 55.6667 160.904 55.54 160.491 55.36C160.084 55.1867 159.717 54.97 159.391 54.71C159.071 54.45 158.817 54.1533 158.631 53.82C158.444 53.48 158.351 53.11 158.351 52.71V52.48ZM166.23 51.29H174.4V51.96H166.23V51.29ZM169.89 50.08H170.72V51.64H169.89V50.08ZM166.99 47.02H173.62V47.7H166.99V47.02ZM167.02 49.58H173.59V50.26H167.02V49.58ZM168.35 47.32H169.18V50.03H168.35V47.32ZM171.43 47.32H172.26V50.03H171.43V47.32ZM167.23 52.81H173.4V55.66H167.23V52.81ZM172.59 53.47H168.04V54.98H172.59V53.47Z" fill="#3C1B16"/>
<g clip-path="url(#clip0_581_1997)">
<path d="M20.1308 21.3088C20.1308 21.3088 -1.24605 28.3086 1.35176 39.6471C1.63209 40.7931 2.17268 41.8628 2.93346 42.7768C3.89206 43.995 5.6463 44.7353 8.29204 46.0003C11.8389 47.7058 23.1312 23.5765 23.1312 23.5765L20.1308 21.3088Z" fill="#89582F"/>
<path d="M9.44246 47.7058C8.86343 47.5355 8.30926 47.293 7.79366 46.9842C4.91785 45.6255 3.1061 44.7446 2.04205 43.4609C1.17702 42.418 0.564231 41.1975 0.249459 39.8907C-2.54007 27.7089 18.8751 20.5123 19.7858 20.2124L20.3322 20.0625L24.5213 23.1923L24.1474 23.9888C22.4795 27.5683 14.686 45.9816 10.2573 47.5277C9.99841 47.6332 9.72263 47.6935 9.44246 47.7058ZM19.8816 22.4895C16.6799 23.5015 0.326147 30.1078 2.44466 39.3566C2.68263 40.3595 3.1588 41.2937 3.83463 42.0834C4.71655 43.1985 6.31741 43.8263 8.79061 44.9789C10.6311 44.7634 16.91 34.0528 21.7317 23.8763L19.8816 22.4895Z" fill="#3C1B16"/>
<path d="M60.1998 51.5383C60.1998 51.5383 61.398 35.2429 56.2311 26.7531L17.0914 21.9178C17.0914 21.9178 6.45092 33.9591 9.18294 45.082C9.18294 45.082 12.1354 55.9987 27.8278 58.1446C43.5201 60.2905 52.4543 57.8073 60.1998 51.5383Z" fill="#F9E0AF"/>
<path d="M37.9316 59.9719C34.4986 59.9459 31.0715 59.6892 27.6745 59.2035C11.3783 56.9827 8.22446 45.8035 8.09025 45.335C5.26238 33.781 15.7591 21.6836 16.2384 21.1682L16.641 20.7278L56.9023 25.7223L57.1803 26.1815C62.4814 34.9055 61.3502 50.948 61.3502 51.632V52.1006L60.9764 52.4004C54.477 57.5918 47.4313 59.9719 37.9316 59.9719ZM17.5708 23.0892C15.7495 25.3288 7.98481 35.5521 10.2759 44.8196C10.3813 45.2132 13.2859 55.0523 27.9813 57.0576C42.1111 58.9317 51.1794 57.2357 59.1071 51.0042C59.2509 48.3617 59.6918 35.2054 55.5315 27.7932L17.5708 23.0892Z" fill="#3C1B16"/>
<path d="M53.4613 26.6313C53.4613 26.6313 51.3524 60.2061 67.1022 52.2974C67.1022 52.2974 72.2116 50.5732 73.3715 45.8035C73.6396 44.5013 73.567 43.1541 73.1606 41.8866C72.202 38.2883 68.4634 30.3889 63.5745 26.6313H53.4613Z" fill="#89582F"/>
<path d="M62.6738 54.6025C61.3282 54.6132 60.0099 54.2315 58.8873 53.5062C51.0555 48.5023 52.2825 27.4559 52.3305 26.5657L52.3976 25.5349H63.9008L64.2075 25.7692C69.2402 29.6018 73.1705 37.4824 74.2345 41.6242C74.6803 43.0616 74.7528 44.5849 74.4454 46.0565C73.228 51.0604 68.2624 53.0376 67.5339 53.3C66.0422 54.1043 64.3765 54.5507 62.6738 54.6025ZM54.5257 27.737C54.2668 34.1184 54.8228 48.2867 60.1143 51.6602C61.8206 52.7565 63.9487 52.6535 66.5657 51.3322L66.8533 51.1916C66.9012 51.1916 71.3779 49.0926 72.2598 45.5693C72.4801 44.4359 72.4076 43.2668 72.0489 42.1677C71.2149 38.9255 67.764 31.4759 63.1147 27.7464L54.5257 27.737Z" fill="#3C1B16"/>
<path d="M22.949 39.0099C24.4526 39.0099 25.6714 37.8184 25.6714 36.3486C25.6714 34.8788 24.4526 33.6873 22.949 33.6873C21.4454 33.6873 20.2266 34.8788 20.2266 36.3486C20.2266 37.8184 21.4454 39.0099 22.949 39.0099Z" fill="#3C1B16"/>
<path d="M40.741 40.6122C42.2445 40.6122 43.4634 39.4207 43.4634 37.951C43.4634 36.4812 42.2445 35.2897 40.741 35.2897C39.2374 35.2897 38.0186 36.4812 38.0186 37.951C38.0186 39.4207 39.2374 40.6122 40.741 40.6122Z" fill="#3C1B16"/>
<path d="M30.3202 47.181C32.4538 47.181 34.1834 46.1196 34.1834 44.8102C34.1834 43.5009 32.4538 42.4395 30.3202 42.4395C28.1866 42.4395 26.457 43.5009 26.457 44.8102C26.457 46.1196 28.1866 47.181 30.3202 47.181Z" fill="#3C1B16"/>
<path d="M32.8898 50.0765H32.8132C32.1723 50.0058 31.5532 49.8071 30.9942 49.4928C30.4352 49.1785 29.9482 48.7552 29.5635 48.2493C29.0681 48.7095 28.4693 49.0501 27.8152 49.2437C27.161 49.4373 26.4696 49.4787 25.7962 49.3644C23.6777 48.849 22.7574 46.3751 22.7191 46.2627C22.6635 46.1111 22.6717 45.9441 22.7418 45.7984C22.8118 45.6526 22.9381 45.5399 23.0929 45.4849C23.2494 45.4303 23.4215 45.4381 23.5721 45.5064C23.7228 45.5748 23.8399 45.6983 23.8982 45.8504C23.8982 45.8504 24.6363 47.8276 26.1029 48.1743C27.0136 48.3992 28.0201 47.9681 29.2472 46.9093L29.7936 46.4126L30.1962 47.0311C30.1962 47.0311 31.3753 48.8209 32.8515 48.9052C33.7334 48.9052 34.5578 48.3336 35.3918 47.1529C35.4251 47.0692 35.4769 46.9937 35.5435 46.9318C35.6101 46.87 35.6899 46.8233 35.7771 46.7951C35.8643 46.7669 35.9569 46.7579 36.0481 46.7688C36.1393 46.7797 36.2269 46.8101 36.3046 46.858C36.3824 46.9058 36.4483 46.9699 36.4978 47.0456C36.5472 47.1213 36.5789 47.2067 36.5906 47.2958C36.6023 47.3849 36.5937 47.4754 36.5655 47.5609C36.5372 47.6463 36.4899 47.7246 36.4271 47.7901C35.3535 49.3081 34.1648 50.0765 32.8898 50.0765Z" fill="#3C1B16"/>
<path d="M64.1303 25.8535C64.4658 27.156 64.3987 27.7276 62.6732 27.8213C31.5569 29.1894 16.6603 23.4265 16.6603 23.4265C15.3374 22.7987 15.7017 22.8549 15.9701 21.5524C15.9701 21.5524 20.2646 5.37872 41.3635 7.10291C59.1935 8.54599 62.7019 20.1468 64.1303 25.8535Z" fill="#BF2B2A"/>
<path d="M65.348 25.5068C64.1114 20.6153 60.8234 7.49648 41.5459 5.90348C19.7569 4.09495 15.0214 20.9995 14.9543 21.2619C14.9172 21.4641 14.8692 21.6643 14.8105 21.8616C14.427 23.3328 15.1364 23.792 16.3347 24.3636C16.8907 24.5791 28.7965 29.0489 53.3271 29.0489C56.3084 29.0489 61.0631 28.9271 64.4278 28.7771C65.2138 28.7771 64.955 29.6486 65.511 28.9177C66.067 28.1868 65.5014 26.1159 65.348 25.5068ZM62.7406 26.6406C32.2954 27.99 17.3124 22.377 17.2549 22.3489L17.044 22.2552C17.044 22.0865 17.1303 21.8991 17.1591 21.7211C17.3316 21.1026 21.5111 6.47508 41.3734 8.08683C49.9337 8.78962 55.0622 11.8351 58.2831 15.6395C56.799 16.7854 54.949 17.3827 53.0587 17.3262C52.8935 17.3126 52.7294 17.3636 52.6027 17.4682C52.476 17.5728 52.3969 17.7223 52.3829 17.8838C52.3689 18.0453 52.4212 18.2057 52.5281 18.3296C52.6351 18.4535 52.788 18.5308 52.9533 18.5444H53.3751C55.4338 18.5438 57.4312 17.8599 59.0404 16.6047C59.3184 16.9795 59.5868 17.3637 59.8265 17.7479C58.6366 18.6397 57.2086 19.1766 55.7141 19.2941C55.6322 19.2952 55.5515 19.3125 55.4767 19.3451C55.402 19.3776 55.3348 19.4247 55.2792 19.4834C55.2236 19.5421 55.1808 19.6113 55.1534 19.6867C55.126 19.762 55.1145 19.8421 55.1197 19.9219C55.1247 20.0802 55.1926 20.2303 55.3089 20.3405C55.4252 20.4507 55.5808 20.5123 55.7428 20.5123C57.4452 20.3979 59.0785 19.8093 60.4496 18.8162C61.6616 21.0965 62.5731 23.5178 63.1624 26.0222C63.2295 26.2939 63.2583 26.4626 63.2774 26.575C63.1002 26.6089 62.9209 26.6308 62.7406 26.6406Z" fill="#3C1B16"/>
<path d="M42.3995 10.9074C41.7146 10.7609 41.1156 10.3583 40.7304 9.7857C40.3453 9.21308 40.2046 8.51589 40.3385 7.8432C40.904 5.08824 42.2557 1.05888 45.5533 1.09636C48.8509 1.13384 49.8478 3.90754 50.0875 5.56614C50.1415 5.95725 50.1059 6.35522 49.9832 6.73122C49.8605 7.10722 49.6538 7.45184 49.3781 7.74012L46.7132 10.5513C46.3927 10.8872 45.9876 11.1349 45.5385 11.2697C45.0893 11.4046 44.6118 11.4218 44.1537 11.3197L42.3995 10.9074Z" fill="#BF2B2A"/>
<path d="M44.7376 12.4535C44.4605 12.4533 44.1843 12.425 43.9132 12.3692L42.1781 11.9756C41.2186 11.7516 40.3844 11.1748 39.8488 10.365C39.3132 9.55527 39.1175 8.57488 39.3023 7.62767C40.2609 2.70811 42.4753 0 45.5044 0H45.562C48.6774 0 50.7288 2.01468 51.1985 5.41621C51.2818 5.96595 51.239 6.52692 51.0733 7.0585C50.9075 7.59008 50.6228 8.07897 50.2399 8.48977L47.575 11.301C47.2089 11.6739 46.7679 11.9689 46.2796 12.1672C45.7913 12.3656 45.2663 12.4631 44.7376 12.4535ZM42.6382 9.82977L44.4021 10.2233C44.6698 10.2806 44.9482 10.2693 45.2102 10.1905C45.4722 10.1117 45.709 9.96808 45.8975 9.77354L48.5624 6.96236C48.7229 6.79496 48.8426 6.59415 48.9123 6.37504C48.9821 6.15594 49.0001 5.92422 48.965 5.69733C48.6487 3.38279 47.4983 2.20209 45.5332 2.18335C43.0504 2.18335 41.9193 5.84726 41.4687 8.03998C41.3945 8.42945 41.478 8.83188 41.7015 9.16233C41.9251 9.49277 42.2713 9.72537 42.667 9.81103L42.6382 9.82977Z" fill="#3C1B16"/>
</g>
<path d="M89.9042 23.995C92.2378 24.3482 94.6019 24.4956 96.9652 24.4354C99.9124 24.4214 102.84 23.9879 105.647 23.1501C106.075 23.0069 106.53 22.9457 106.984 22.97C107.438 22.9943 107.883 23.1037 108.291 23.2916C108.699 23.4796 109.062 23.7422 109.358 24.0638C109.655 24.3854 109.879 24.7594 110.016 25.1634C110.278 25.8932 110.257 26.6855 109.955 27.4019C109.654 28.1182 109.092 28.713 108.367 29.0823C105.737 30.1997 102.885 30.7906 99.9941 30.817V35.1314C103.239 35.1296 106.481 34.9676 109.708 34.646C110.171 34.5751 110.646 34.594 111.101 34.7016C111.556 34.8093 111.983 35.0033 112.354 35.2716C112.725 35.5398 113.033 35.8766 113.258 36.2608C113.484 36.6449 113.621 37.0683 113.663 37.5043C113.716 38.3404 113.43 39.1645 112.862 39.8136C112.294 40.4627 111.485 40.8896 110.595 41.0097C105.444 41.6209 87.0682 41.7827 81.0972 41.0097C80.6456 40.9596 80.209 40.827 79.8124 40.6196C79.4158 40.4122 79.0669 40.1341 78.7856 39.8011C78.5044 39.4681 78.2963 39.0867 78.1732 38.6787C78.0501 38.2708 78.0145 37.8442 78.0683 37.4234C78.1221 37.0026 78.2644 36.5958 78.487 36.2262C78.7095 35.8567 79.008 35.5316 79.3654 35.2695C79.7228 35.0074 80.1321 34.8135 80.5699 34.6988C81.0077 34.5841 81.4655 34.5509 81.9171 34.6011C84.5216 34.8438 88.4958 35.0056 92.7402 35.0865V30.7272C90.2554 30.6665 87.7928 30.273 85.4283 29.5587C84.6177 29.2667 83.8927 28.8002 83.3127 28.1972C82.7326 27.5942 82.3139 26.8719 82.0908 26.0892C81.4059 23.0242 81.6181 16.6965 82.0908 13.7124C82.3512 11.8608 84.1261 10.5305 85.2451 10.5305H106.467C107.981 10.5305 109.197 11.9777 109.197 13.6315C109.197 15.0067 108.232 16.8583 106.467 16.8583H89.9524C88.9878 16.8583 88.9106 17.4245 88.872 17.6672C88.6311 19.456 88.5859 21.2629 88.737 23.0602C88.8238 23.5545 89.1711 23.8781 89.9042 23.995Z" fill="#3B1B16"/>
<path d="M126.839 26.0533C129.388 26.3853 131.96 26.5326 134.533 26.4937C137.97 26.5163 141.395 26.1112 144.718 25.2893C145.57 25.0303 146.497 25.0863 147.307 25.4457C148.117 25.805 148.749 26.4405 149.074 27.2217C149.314 27.9032 149.275 28.6438 148.964 29.2999C148.653 29.9559 148.093 30.4806 147.391 30.7721C144.871 31.7788 141.034 32.1833 137.582 32.381V35.4909C141.813 35.446 145.737 35.2842 148.324 35.0056C150.055 34.7988 152.171 35.6527 152.257 37.702C152.303 38.5172 152.009 39.3172 151.437 39.9341C150.865 40.5509 150.059 40.9364 149.19 41.0097C144.054 41.6209 124.685 41.7827 118.732 41.0097C118.288 40.9783 117.855 40.864 117.459 40.6738C117.063 40.4835 116.712 40.2211 116.426 39.902C116.14 39.5828 115.925 39.2134 115.795 38.8155C115.664 38.4176 115.62 37.9993 115.664 37.5852C115.822 36.7727 116.312 36.0494 117.03 35.5681C117.747 35.0867 118.637 34.885 119.511 35.0056C122.098 35.2482 126.07 35.41 130.302 35.4909V32.381C127.696 32.3176 125.11 31.9399 122.608 31.2575C121.821 30.995 121.108 30.5678 120.525 30.0085C119.942 29.4493 119.503 28.7727 119.242 28.0307C118.876 25.646 118.876 23.2247 119.242 20.8401C119.421 20.1297 119.826 19.487 120.405 18.9973C120.984 18.5077 121.709 18.1942 122.483 18.0987H145.439C146.202 18.1726 146.908 18.5104 147.419 19.0458C147.93 19.5813 148.208 20.2757 148.199 20.9929C148.199 22.2422 147.237 23.8961 145.439 23.8961H126.839C126.726 23.8902 126.613 23.9074 126.508 23.9466C126.402 23.9859 126.308 24.0461 126.23 24.1231C126.152 24.2001 126.093 24.2921 126.057 24.3926C126.021 24.4931 126.009 24.5997 126.022 24.705V25.1095C126.007 25.3338 126.083 25.5552 126.234 25.7299C126.386 25.9046 126.602 26.02 126.839 26.0533ZM122.271 16.4179C121.493 16.366 120.764 16.0422 120.23 15.5109C119.695 14.9797 119.394 14.2798 119.386 13.5506C119.371 12.7998 119.659 12.0713 120.194 11.5112C120.73 10.951 121.471 10.6007 122.271 10.5305H145.093C145.888 10.5962 146.627 10.9402 147.162 11.4936C147.697 12.047 147.988 12.7689 147.978 13.5146C147.991 14.2532 147.699 14.9681 147.161 15.5093C146.623 16.0505 145.882 16.3762 145.093 16.4179H122.271Z" fill="#3B1B16"/>
<path d="M156.657 24.5424C156.96 23.1991 157.968 22.0555 159.151 22.0555H170.035C170.035 21.0844 170.035 19.9861 170.035 18.3524C170.035 18.0256 170.035 17.4992 168.979 17.4992H159.591C157.929 17.4992 157.048 15.684 157.048 14.2771C157.048 12.8703 158.105 11.1004 159.591 11.1004H173.35C174.208 11.1355 175.027 11.4432 175.669 11.9719C176.312 12.5007 176.739 13.2184 176.88 14.0048C177.209 17.8287 177.15 21.6728 176.704 25.4864C176.44 26.7026 175.433 28.4997 173.496 28.4997H163.366C163.366 29.5162 163.366 31.0229 163.366 32.5296C163.366 33.2194 163.845 33.6641 164.852 33.8275C165.977 34.043 167.125 34.1404 168.274 34.1179C170.208 34.1677 172.133 33.8591 173.936 33.2103C175.296 32.6385 178.317 33.0469 178.826 35.4068C178.928 36.1559 178.781 36.9161 178.405 37.5858C178.03 38.2556 177.443 38.8031 176.723 39.1553C173.985 40.2075 171.042 40.7205 168.079 40.662C165.264 40.6997 162.468 40.2439 159.835 39.3187C159.048 39.0135 158.341 38.5524 157.765 37.9677C157.189 37.383 156.758 36.6887 156.501 35.9332C155.992 33.7004 156.256 26.2488 156.657 24.5424ZM188.37 40.7073C188.189 41.5472 187.683 42.2967 186.948 42.8148C186.214 43.333 185.3 43.5841 184.38 43.521C183.454 43.4649 182.588 43.0762 181.966 42.4375C181.343 41.7987 181.013 40.96 181.046 40.0992C181.657 30.7683 181.657 21.4116 181.046 12.0807C180.995 11.2246 181.299 10.3829 181.895 9.72812C182.491 9.07335 183.335 8.65509 184.253 8.55906C185.19 8.4464 186.138 8.67022 186.903 9.18478C187.669 9.69933 188.193 10.4657 188.37 11.3273C189.211 16.9274 188.859 36.1873 188.37 40.7073Z" fill="#3B1B16"/>
<defs>
<clipPath id="clip0_581_1997">
<rect width="74.6464" height="60" fill="white"/>
</clipPath>
</defs>
</svg>
