<svg width="170" height="216" viewBox="0 0 170 216" fill="none" xmlns="http://www.w3.org/2000/svg">
<g clip-path="url(#clip0_713_926)">
<path d="M35.2562 166.043C32.1241 165.597 29.1595 164.38 26.6406 162.507C23.1851 159.61 17.3013 152.014 11.8144 158.424C6.32748 164.834 11.5108 173.913 16.344 175.647C16.344 175.647 25.9168 180.711 32.6879 176.422L35.2562 166.043Z" fill="#EDBD74"/>
<path d="M15.5734 177.221C13.7601 176.334 12.1654 175.073 10.8996 173.525C9.63382 171.977 8.72706 170.18 8.24196 168.256C7.69579 166.39 7.62296 164.422 8.02976 162.522C8.43656 160.622 9.31076 158.848 10.5768 157.352C11.2249 156.472 12.0582 155.738 13.0207 155.199C13.9832 154.66 15.0526 154.329 16.1571 154.227C20.0096 153.976 23.5819 157.398 26.1736 159.679C26.7573 160.249 27.2943 160.751 27.7846 161.162C30.0338 162.825 32.6757 163.907 35.4662 164.31L37.4042 164.56L34.2755 177.472L33.6918 177.837C31.4502 179.193 28.8564 179.89 26.2203 179.844C22.5169 179.746 18.8815 178.85 15.5734 177.221ZM33.1314 167.389C30.3505 166.771 27.7486 165.546 25.5198 163.808C24.9828 163.351 24.3757 162.804 23.7453 162.211C21.6206 160.226 18.6787 157.649 16.2505 157.649C15.6286 157.723 15.0309 157.929 14.4987 158.252C13.9665 158.575 13.5126 159.008 13.1685 159.519C12.2816 160.608 11.6816 161.893 11.4211 163.261C11.1606 164.629 11.2475 166.039 11.6742 167.366C12.0089 168.783 12.6511 170.113 13.5574 171.266C14.4638 172.419 15.6131 173.368 16.9276 174.05H17.1377C17.1377 174.05 25.3097 178.293 31.1468 175.236L33.1314 167.389Z" fill="#3B1A15"/>
<path d="M76.6059 190.201L73.664 199.827C73.664 199.827 90.2647 212.031 76.6059 213.993C62.947 215.955 42.4004 207.857 42.4004 207.857L43.0775 184.292L76.6059 190.201Z" fill="#EDBD74"/>
<path d="M41.7467 209.43L40.626 208.997L41.3731 182.239L78.7306 188.855L75.6019 199.188C78.3804 201.469 84.6611 206.921 83.5171 211.369C82.91 213.65 80.6452 215.133 76.7694 215.681C75.1374 215.904 73.4908 216.011 71.8428 216C58.5576 216 42.4939 209.727 41.7467 209.43ZM44.7587 186.322L44.1749 206.693C48.6111 208.313 65.1885 213.924 76.3491 212.305C78.6839 211.985 79.9914 211.324 80.2016 210.525C80.7386 208.472 76.139 203.682 72.6133 201.173L71.6327 200.465L74.3645 191.615L44.7587 186.322Z" fill="#3B1A15"/>
<path d="M114.08 183.676L113.52 193.668C113.52 193.668 132.199 203.089 119.707 208.951C107.706 214.608 85.0581 208.632 85.0581 208.632L80.0615 185.57L114.08 183.676Z" fill="#EDBD74"/>
<path d="M84.5918 210.274L83.5645 210.001L77.9375 183.973L115.925 181.852L115.342 192.687C118.237 194.307 125.825 199.006 125.755 204.093C125.755 206.647 123.934 208.792 120.478 210.411C115.869 212.318 110.888 213.214 105.886 213.035C98.7009 212.94 91.5531 212.014 84.5918 210.274ZM82.257 187.167L86.5998 207.218C91.0593 208.29 109.084 212.145 119.077 207.4C121.241 206.381 122.338 205.286 122.37 204.115C122.37 201.31 116.813 197.272 112.843 195.196L111.839 194.694L112.33 185.57L82.257 187.167Z" fill="#3B1A15"/>
<path d="M75.8355 116.064C75.8355 116.064 131.708 111.502 124.47 110.68L133.203 173.366C133.203 173.366 90.545 207.583 28.8584 178.59L36.0264 152.836C36.0264 152.836 49.0315 102.445 50.3857 98.5676C51.7399 94.6896 43.6613 102.765 43.6613 102.765L112.493 80.752L73.524 101.51C73.524 101.51 77.7033 113.737 75.8355 116.064Z" fill="#466FB5"/>
<path d="M28.0185 180.209L26.7109 179.593L34.3225 152.471C34.7662 150.76 43.4518 117.273 47.1875 103.449L37.4979 106.551L42.4244 101.579C49.1021 94.7352 50.3162 95.5336 51.2735 96.1039C51.6431 96.3123 51.9351 96.6302 52.1072 97.0117C52.2794 97.3932 52.3226 97.8183 52.2308 98.2254L112.073 79.1323L113.45 82.2575L75.6493 102.331C77.0131 106.146 77.7996 110.134 77.9841 114.17C93.5575 112.893 116.019 110.863 122.533 109.813L122.393 108.696L124.728 108.992C126.642 109.22 126.899 110.293 126.899 110.931C126.919 111.132 126.888 111.334 126.811 111.52C126.734 111.707 126.612 111.873 126.455 112.003L135.094 174.141L134.324 174.757C117.876 186.078 98.1958 192.049 78.0775 191.82C60.7063 191.705 43.5889 187.735 28.0185 180.209ZM123.047 113.121C117.817 114.148 105.419 115.402 75.9762 117.683L71.9369 118.048L74.4352 114.946C75.0422 113.805 73.8514 107.738 71.8668 101.944L71.3999 100.598L94.865 88.0972L51.1568 102.172C47.9347 113.897 37.8481 152.858 37.7081 153.337L30.937 177.654C85.7125 202.61 125.405 176.901 131.335 172.659L123.047 113.121Z" fill="#3C1C17"/>
<path d="M16.7877 62.7082L2.33503 41.9499C2.06516 41.5406 1.90707 41.0705 1.87585 40.5845C1.84463 40.0986 1.94131 39.6129 2.15667 39.1737C2.37204 38.7346 2.69892 38.3567 3.10616 38.076C3.5134 37.7953 3.98744 37.6211 4.48309 37.5702L31.2871 34.08C31.5369 34.0335 31.7955 34.0714 32.0204 34.1875C32.2453 34.3035 32.4231 34.4909 32.5246 34.7187C42.7547 27.3428 54.3211 21.9248 66.6133 18.7509C78.9656 15.1976 91.9049 14.0125 104.718 15.2607C104.637 14.9848 104.66 14.6895 104.785 14.4294C104.909 14.1693 105.126 13.9622 105.395 13.8464L130.214 3.30762C130.665 3.09923 131.162 3.00782 131.659 3.04224C132.156 3.07666 132.635 3.23573 133.051 3.50408C133.466 3.77244 133.804 4.14099 134.031 4.57411C134.258 5.00724 134.367 5.49028 134.347 5.97654L132.759 31.0689C132.751 31.2437 132.703 31.4145 132.618 31.5685C132.533 31.7225 132.414 31.8559 132.269 31.9586C146.021 49.2495 164.957 87.6637 115.668 115.699L115.155 115.927C111.022 118.003 63.508 140.403 30.0496 111.981C26.6875 109.152 23.1618 102.651 21.0138 96.0127C17.6748 85.389 16.462 74.2364 17.4415 63.1644C17.1714 63.1007 16.937 62.9372 16.7877 62.7082Z" fill="#EDBD74"/>
<path d="M28.9056 113.326C24.7962 109.836 21.2706 102.354 19.3327 96.5372C16.0389 86.0212 14.78 74.9977 15.6203 64.0311C15.5146 63.9189 15.4208 63.7966 15.3401 63.6661L0.794032 42.9307C0.355497 42.3054 0.0886929 41.5806 0.0191908 40.8257C-0.0503113 40.0707 0.0798186 39.311 0.397108 38.6193C0.721053 37.8798 1.23938 37.2371 1.89955 36.7563C2.55971 36.2756 3.33824 35.974 4.15621 35.882L30.9369 32.369C31.4504 32.3013 31.9731 32.3642 32.4545 32.5515C42.6185 25.4873 53.9987 20.2643 66.0529 17.1311C78.1674 13.667 90.8286 12.3991 103.41 13.3901C103.718 12.9 104.175 12.5169 104.718 12.2951L129.514 1.7335C130.264 1.40013 131.092 1.26673 131.912 1.34686C132.732 1.42699 133.516 1.7178 134.184 2.18973C134.824 2.62127 135.339 3.20731 135.678 3.89085C136.018 4.57439 136.171 5.33216 136.122 6.09045L134.534 31.1829C134.547 31.4032 134.547 31.6241 134.534 31.8444C140.698 39.8511 152.722 58.6476 148.543 79.1094C145.601 93.9595 134.837 106.779 116.579 117.159C116.385 117.267 116.182 117.359 115.972 117.432C102.032 124.067 86.7855 127.671 71.283 127.994C55.7921 128.359 40.7062 123.138 28.9056 113.326ZM132.596 5.86234C132.612 5.68865 132.579 5.514 132.501 5.35723C132.423 5.20046 132.302 5.0675 132.152 4.9727C131.963 4.87087 131.75 4.81747 131.534 4.81747C131.317 4.81747 131.104 4.87087 130.915 4.9727L106.516 15.2606L105.302 15.9677L104.484 16.9258C91.8643 15.7685 79.1342 16.9921 66.9869 20.53C54.9221 23.6527 43.5648 28.9608 33.5052 36.1785L31.8241 37.456L31.0303 35.9276L4.66987 39.2809C4.44709 39.3005 4.23392 39.3787 4.05302 39.5072C3.87212 39.6358 3.73027 39.8098 3.64254 40.0108C3.55442 40.1599 3.50803 40.3291 3.50803 40.5013C3.50803 40.6734 3.55442 40.8426 3.64254 40.9917L18.0485 61.5219L19.2626 61.8184V63.2555C18.2692 74.1138 19.4266 85.0574 22.6715 95.4879C24.8896 102.149 28.3218 108.285 31.1937 110.749C64.5586 139.149 112.33 115.471 114.408 114.444L114.851 114.262C132.222 104.384 142.402 92.3399 145.204 78.4935C149.15 58.5564 136.589 40.0793 130.985 33.0534L129.864 31.6391L131.148 30.7494L132.596 5.86234Z" fill="#3B1A15"/>
<path d="M9.59646 96.9252C9.75116 96.9491 9.90874 96.9491 10.0634 96.9252L34.6026 90.2415C34.841 90.1978 35.0676 90.1062 35.2678 89.9724C35.4681 89.8387 35.6377 89.6658 35.766 89.4647C35.8943 89.2635 35.9784 89.0385 36.013 88.804C36.0475 88.5694 36.0319 88.3304 35.967 88.1021C35.9021 87.8737 35.7893 87.6611 35.6358 87.4775C35.4823 87.294 35.2915 87.1437 35.0755 87.036C34.8594 86.9283 34.6228 86.8656 34.3806 86.852C34.1384 86.8383 33.896 86.874 33.6687 86.9566L9.12949 93.5263C8.72664 93.641 8.37932 93.8931 8.15076 94.2369C7.92219 94.5807 7.82759 94.9933 7.88415 95.3995C7.94072 95.8057 8.1447 96.1786 8.45897 96.4502C8.77324 96.7219 9.17689 96.8742 9.59646 96.8796V96.9252Z" fill="#3C1C17"/>
<path d="M20.8499 116.338C21.1673 116.336 21.4783 116.251 21.7498 116.09C22.0212 115.929 22.2428 115.699 22.3909 115.425C27.3408 106.301 42.1203 100.005 42.2838 99.9591C42.4987 99.87 42.6932 99.7397 42.8559 99.576C43.0185 99.4123 43.146 99.2185 43.2309 99.006C43.3157 98.7934 43.3562 98.5664 43.3499 98.3384C43.3437 98.1103 43.2908 97.8858 43.1944 97.678C43.1058 97.4659 42.9739 97.2737 42.8068 97.113C42.6397 96.9523 42.4409 96.8265 42.2225 96.7433C42.0041 96.6601 41.7706 96.6211 41.5363 96.6289C41.3019 96.6366 41.0717 96.6909 40.8595 96.7884C40.2058 97.0621 24.7724 103.632 19.2622 113.806C19.114 114.07 19.0399 114.368 19.0474 114.669C19.0549 114.97 19.1437 115.264 19.3048 115.521C19.4659 115.778 19.6937 115.989 19.965 116.132C20.2363 116.276 20.5416 116.347 20.8499 116.338Z" fill="#3C1C17"/>
<path d="M155.851 88.9642C156.135 88.9662 156.415 88.9009 156.667 88.7737C156.919 88.6465 157.136 88.4614 157.299 88.2343C157.538 87.8708 157.625 87.4317 157.542 87.0073C157.46 86.583 157.214 86.2057 156.855 85.9531C149.127 80.6381 136.729 82.1208 136.192 82.1208C135.731 82.1783 135.311 82.4125 135.027 82.7718C134.742 83.1312 134.615 83.5863 134.674 84.037C134.733 84.4877 134.973 84.8971 135.341 85.1752C135.708 85.4533 136.174 85.5772 136.636 85.5197C136.636 85.5197 148.31 84.1967 154.871 88.6677C155.159 88.8613 155.501 88.9647 155.851 88.9642Z" fill="#3C1C17"/>
<path d="M137.756 69.8026C137.911 69.8265 138.069 69.8265 138.223 69.8026L162.762 63.1189C163.001 63.0752 163.227 62.9836 163.428 62.8499C163.628 62.7162 163.798 62.5432 163.926 62.3421C164.054 62.141 164.138 61.916 164.173 61.6814C164.207 61.4469 164.192 61.2078 164.127 60.9795C164.062 60.7512 163.949 60.5385 163.796 60.355C163.642 60.1715 163.451 60.0211 163.235 59.9134C163.019 59.8057 162.783 59.7431 162.54 59.7294C162.298 59.7158 162.056 59.7514 161.829 59.8341L137.196 66.4265C136.749 66.554 136.372 66.8478 136.145 67.2446C135.918 67.6414 135.859 68.1095 135.982 68.548C136.088 68.9231 136.321 69.2518 136.643 69.4798C136.966 69.7079 137.359 69.8218 137.756 69.8026Z" fill="#3C1C17"/>
<path d="M97.1997 21.146C97.1997 21.146 103.784 43.2501 97.7601 45.1435C91.7362 47.0368 80.4355 25.8223 80.4355 25.8223L97.1997 21.146Z" fill="#D18426"/>
<path d="M59.1646 33.145C59.1646 33.145 64.1144 56.1388 58.0672 57.9865C51.6464 59.9255 42.4004 37.8213 42.4004 37.8213L59.1646 33.145Z" fill="#D18426"/>
<path d="M80.2724 27.3735C80.2724 27.3735 86.3897 54.3365 79.3852 56.1386C72.3806 57.9406 61.0566 32.5289 61.0566 32.5289L80.2724 27.3735Z" fill="#D18426"/>
<path d="M53.3975 10.0598C56.0359 9.12451 57.7403 8.64548 57.7403 8.64548H58.2306C69.2978 5.81688 97.923 1.32306 106.819 25.503C106.994 26.0193 107.06 26.5651 107.013 27.1071C106.966 27.6492 106.806 28.1762 106.544 28.6562C106.282 29.1362 105.923 29.5592 105.489 29.8994C105.054 30.2397 104.553 30.4901 104.017 30.6355L68.107 41.1744L64.0444 42.3149L30.0257 52.1238C27.6909 52.8537 27.2706 51.5763 27.0838 49.318C24.9825 22.9481 42.6572 13.9833 53.3975 10.0598Z" fill="#466FB5"/>
<path d="M27.1077 53.5607C26.5155 53.0552 26.0482 52.4252 25.7408 51.718C25.4335 51.0108 25.2941 50.2448 25.3332 49.4775C23.7455 29.4948 32.9681 15.694 52.7909 8.41716C55.476 7.43627 57.1805 6.98005 57.2972 6.95724L57.7642 6.84318C67.1035 4.56205 98.7407 -1.34607 108.43 24.7728C108.698 25.4779 108.811 26.2299 108.763 26.9803C108.714 27.7307 108.506 28.4629 108.15 29.1298C107.784 29.8468 107.272 30.4835 106.646 31.0011C106.02 31.5188 105.292 31.9066 104.508 32.1409L70.2556 42.3375L30.5632 53.7432C30.0279 53.9153 29.469 54.0076 28.9055 54.0169C28.2732 54.0419 27.6475 53.8831 27.1077 53.5607ZM103.504 28.8789C103.835 28.7851 104.144 28.6252 104.409 28.4093C104.674 28.1934 104.891 27.9261 105.045 27.6243C105.165 27.3625 105.228 27.0787 105.228 26.7916C105.228 26.5046 105.165 26.2208 105.045 25.959C96.5926 3.14775 69.7186 7.34503 58.5113 10.1736H58.091C58.091 10.1736 56.7602 10.5386 54.5654 11.3142L53.8883 11.5423C35.4664 18.3857 27.2244 30.5669 28.7187 49.0897C28.7396 49.5759 28.818 50.0581 28.9522 50.5268L29.4192 50.3899L63.4612 40.5811L65.796 39.9195L103.504 28.8789Z" fill="#3C1C17"/>
<path d="M55.8496 15.01C56.7349 14.2805 57.3112 13.2556 57.4665 12.1344C57.6219 11.0131 57.3451 9.87538 56.6901 8.94222C53.865 5.13274 49.0318 0.000200897 44.1754 2.28133C39.3189 4.56246 39.8326 9.39845 40.7198 12.1586C40.9186 12.7842 41.253 13.3607 41.7002 13.8488C42.1474 14.3369 42.697 14.7252 43.3115 14.9872L49.2186 17.2683C49.9252 17.5583 50.6984 17.6584 51.4579 17.5581C52.2174 17.4579 52.9356 17.1609 53.5381 16.6981L55.8496 15.01Z" fill="#466FB5"/>
<path d="M48.5646 18.956L42.6341 16.5608C41.7828 16.2016 41.0208 15.6672 40.4003 14.994C39.7797 14.3208 39.3152 13.5247 39.0384 12.6601C37.3573 7.2538 38.8983 2.89685 43.4046 0.729775C47.9108 -1.4373 53.0942 1.16319 58.1141 7.93814C59.0627 9.21936 59.4706 10.8079 59.2532 12.3749C59.0359 13.9418 58.21 15.3671 56.9467 16.3555L54.6352 18.2488C53.5683 19.0817 52.2417 19.5325 50.8761 19.5263C50.0733 19.4955 49.286 19.3013 48.5646 18.956ZM55.2656 9.94553C53.0008 6.8432 48.658 2.03002 44.9689 3.8093C42.0504 5.20079 41.1865 7.84689 42.4006 11.6564C42.5142 12.0437 42.716 12.4009 42.9909 12.7011C43.2659 13.0013 43.6069 13.2369 43.9883 13.39L49.8955 15.808C50.3171 15.974 50.7757 16.0297 51.2261 15.9697C51.6764 15.9097 52.103 15.7361 52.4638 15.4659L54.7986 13.6638C55.3456 13.2181 55.6983 12.5856 55.7851 11.8949C55.8718 11.2042 55.6861 10.5072 55.2656 9.94553Z" fill="#3C1C17"/>
<path d="M29.3961 39.9879C31.8668 40.0162 34.3285 39.6935 36.7042 39.0299C37.1469 38.8907 37.515 38.5854 37.7273 38.1812C37.9397 37.7769 37.979 37.3068 37.8366 36.8742C37.6941 36.4416 37.3817 36.0821 36.9679 35.8746C36.5541 35.6671 36.0729 35.6287 35.6301 35.7679C33.1531 36.4284 30.5797 36.6752 28.0185 36.4978C27.5541 36.4706 27.0976 36.6247 26.7495 36.9263C26.4014 37.2279 26.1902 37.6523 26.1623 38.106C26.1345 38.5598 26.2922 39.0057 26.6009 39.3458C26.9096 39.6859 27.344 39.8923 27.8084 39.9195L29.3961 39.9879Z" fill="#3C1C17"/>
<path d="M30.61 30.7267C34.944 30.7481 39.2669 30.2966 43.4983 29.3808C43.9504 29.2719 44.3396 28.992 44.5804 28.6027C44.8213 28.2135 44.8939 27.7466 44.7825 27.305C44.671 26.8633 44.3845 26.483 43.9861 26.2478C43.5876 26.0125 43.1098 25.9415 42.6578 26.0504C38.702 26.9046 34.6611 27.3254 30.61 27.305H30.4699C30.0055 27.305 29.56 27.4852 29.2316 27.8061C28.9032 28.1269 28.7188 28.5621 28.7188 29.0158C28.7278 29.2495 28.7839 29.4792 28.8838 29.6917C28.9838 29.9043 29.1257 30.0954 29.3013 30.2543C29.477 30.4132 29.683 30.5367 29.9075 30.6178C30.1321 30.6988 30.3708 30.7358 30.61 30.7267Z" fill="#3C1C17"/>
<g opacity="0.7">
<path d="M126.315 10.6985L111.652 17.5419C111.541 17.6066 111.449 17.6984 111.385 17.8084C111.321 17.9183 111.287 18.0427 111.287 18.1692C111.287 18.2957 111.321 18.42 111.385 18.53C111.449 18.64 111.541 18.7318 111.652 18.7965L125.428 26.6208C125.535 26.6841 125.657 26.7191 125.782 26.7225C125.908 26.7258 126.032 26.6974 126.142 26.6399C126.253 26.5824 126.346 26.4979 126.413 26.3946C126.48 26.2913 126.519 26.1727 126.525 26.0505L127.342 11.4056C127.354 11.2816 127.333 11.1566 127.279 11.0433C127.226 10.9301 127.143 10.8327 127.039 10.7609C126.934 10.6891 126.813 10.6455 126.685 10.6346C126.558 10.6236 126.431 10.6457 126.315 10.6985Z" fill="#BC935F"/>
</g>
<g opacity="0.7">
<path d="M8.94201 40.6955L25.2859 40.0796C25.4176 40.0785 25.5473 40.1113 25.6618 40.1749C25.7764 40.2385 25.8716 40.3306 25.938 40.4417C26.0044 40.5529 26.0395 40.6792 26.0398 40.8079C26.0401 40.9366 26.0055 41.0631 25.9397 41.1746L17.5109 54.4051C17.4464 54.509 17.3555 54.5948 17.2471 54.6544C17.1388 54.714 17.0165 54.7453 16.8922 54.7453C16.7678 54.7453 16.6455 54.714 16.5372 54.6544C16.4288 54.5948 16.3379 54.509 16.2734 54.4051L8.3583 41.7677C8.29349 41.6629 8.25762 41.5436 8.25418 41.4212C8.25074 41.2989 8.27986 41.1778 8.33868 41.0697C8.39751 40.9617 8.48403 40.8704 8.58978 40.8048C8.69553 40.7392 8.8169 40.7016 8.94201 40.6955Z" fill="#BC935F"/>
</g>
<path d="M107.646 71.6191C109.494 69.2891 109.068 65.9424 106.693 64.1441C104.319 62.3458 100.895 62.7768 99.0464 65.1068C97.1978 67.4368 97.6243 70.7835 99.999 72.5818C102.374 74.3802 105.797 73.9491 107.646 71.6191Z" fill="#3C1C17"/>
<path d="M64.5277 81.5488C66.3763 79.2188 65.9498 75.8721 63.5751 74.0738C61.2004 72.2755 57.7768 72.7065 55.9282 75.0365C54.0796 77.3665 54.5061 80.7132 56.8808 82.5115C59.2555 84.3098 62.6791 83.8788 64.5277 81.5488Z" fill="#3C1C17"/>
<path d="M88.3275 82.6455C88.4469 82.1861 88.4355 81.7037 88.2947 81.2502C88.1538 80.7967 87.8888 80.3894 87.5282 80.0723C87.1677 79.7553 86.7253 79.5406 86.2489 79.4513C85.7725 79.3621 85.2802 79.4017 84.8252 79.566L81.7899 80.4328L78.7546 81.2768C78.2818 81.3757 77.845 81.5976 77.4906 81.9189C77.1361 82.2403 76.877 82.6492 76.7407 83.1024C76.6044 83.5557 76.5959 84.0365 76.7161 84.4941C76.8364 84.9517 77.0808 85.3691 77.4237 85.7022L79.7586 87.6183L82.0934 89.5573C82.4728 89.8686 82.925 90.0837 83.4098 90.1835C83.8946 90.2832 84.3971 90.2646 84.8728 90.1292C85.3485 89.9939 85.7827 89.746 86.1369 89.4075C86.491 89.0689 86.7543 88.6503 86.9032 88.1886L87.7437 85.4285L88.3275 82.6455Z" fill="#3C1C17"/>
<path d="M79.8985 96.7652C80.9133 96.549 81.8702 96.1265 82.707 95.5252C83.5437 94.9239 84.2415 94.1572 84.755 93.2751C85.6254 93.9631 86.6569 94.4295 87.757 94.6326C88.8572 94.8356 89.9917 94.7689 91.0591 94.4385C92.1325 93.88 93.0699 93.1018 93.8073 92.1569C94.5447 91.2121 95.0647 90.1229 95.3318 88.9638C95.3956 88.7128 95.3553 88.4473 95.2198 88.2252C95.0842 88.003 94.8644 87.8422 94.608 87.7776C94.4792 87.7471 94.3455 87.7418 94.2146 87.7621C94.0837 87.7823 93.9582 87.8276 93.8453 87.8955C93.7325 87.9634 93.6345 88.0524 93.557 88.1574C93.4795 88.2625 93.4241 88.3815 93.3939 88.5076C93.3939 88.5076 92.5767 91.8152 90.3119 92.6136C89.3824 92.8008 88.4198 92.7592 87.5108 92.4924C86.6019 92.2256 85.7752 91.742 85.1052 91.0852L84.0545 90.3325L83.5409 91.4046C83.5409 91.4046 81.9765 94.4841 79.6417 94.7807C78.7868 94.769 77.9474 94.5555 77.1953 94.1583C76.4431 93.7611 75.8005 93.192 75.3222 92.4995C75.2326 92.4056 75.1242 92.3307 75.0037 92.2794C74.8832 92.2282 74.7532 92.2018 74.6218 92.2018C74.4903 92.2018 74.3603 92.2282 74.2398 92.2794C74.1193 92.3307 74.0109 92.4056 73.9213 92.4995C73.7208 92.6713 73.5965 92.9125 73.5747 93.1722C73.5529 93.4319 73.6354 93.6896 73.8046 93.891C74.4966 94.8263 75.416 95.5787 76.4798 96.0805C77.5436 96.5822 78.7184 96.8176 79.8985 96.7652Z" fill="#3C1C17"/>
<path d="M147.586 111.228C149.172 109.786 151.257 108.985 153.423 108.985C155.589 108.985 157.675 109.786 159.26 111.228C165.447 116.383 169.627 119.303 167.829 128.062C166.031 136.822 160.217 135.476 160.217 135.476L147.586 111.228Z" fill="#EDBD74"/>
<path d="M159.82 137.141L159.026 136.868L145.438 110.886L146.371 109.996C148.265 108.249 150.771 107.276 153.376 107.276C155.981 107.276 158.487 108.249 160.381 109.996L161.314 110.772C166.988 115.334 171.448 119.166 169.556 128.473C169.354 130.004 168.836 131.478 168.033 132.807C167.231 134.137 166.16 135.293 164.887 136.206C163.719 136.947 162.357 137.343 160.964 137.347C160.576 137.319 160.193 137.25 159.82 137.141ZM149.827 111.775L161.338 133.879C161.833 133.837 162.316 133.706 162.762 133.492C163.715 132.828 164.509 131.971 165.09 130.978C165.67 129.986 166.023 128.882 166.124 127.743C167.619 120.421 164.583 117.911 159.12 113.326L158.186 112.551C156.921 111.382 155.256 110.715 153.516 110.68C152.203 110.68 150.919 111.061 149.827 111.775Z" fill="#3B1A15"/>
<path d="M153.936 100.369C153.936 100.369 155.898 93.3892 153.936 93.3892H104.251C104.251 93.3892 101.332 99.7079 102.733 101.921C104.134 104.133 85.1985 146.334 97.5265 158.059C97.5265 158.059 94.608 162.507 95.9155 163.465C97.223 164.423 131.405 173.616 154.894 165.359C154.894 165.359 159.563 167.64 159.563 165.997C159.563 164.355 156.014 159.975 155.034 160.295C154.053 160.614 169.533 136.867 153.936 100.369Z" fill="#A6814E"/>
<path d="M94.7717 164.834C92.9039 163.466 93.8612 160.706 95.2621 158.265C86.88 148.137 94.585 123.5 98.7877 110.065C99.6415 107.556 100.359 105.005 100.936 102.423C99.6749 99.5713 101.916 94.2563 102.664 92.6595C102.799 92.357 103.02 92.0992 103.302 91.917C103.584 91.7349 103.913 91.6362 104.251 91.633H153.937C154.309 91.6284 154.677 91.7109 155.01 91.8736C155.343 92.0363 155.632 92.2745 155.851 92.5683C157.042 94.0738 156.505 97.4499 155.851 100.21C161.969 114.786 167.012 136.708 157.135 159.519C159.222 161.194 160.684 163.496 161.291 166.066C161.3 166.447 161.206 166.822 161.017 167.155C160.828 167.488 160.552 167.765 160.217 167.96C159.797 168.233 158.606 168.963 154.777 167.275C147.23 169.606 139.343 170.715 131.429 170.56C113.124 170.492 96.0793 165.792 94.7717 164.834ZM155.478 163.831L156.715 164.355C156.146 163.495 155.445 162.726 154.637 162.074C154.199 162.022 153.793 161.82 153.493 161.504C152.676 160.637 153.049 159.816 153.633 158.447C163.323 136.389 158.303 115.106 152.232 101.054C152.092 100.702 152.092 100.311 152.232 99.9591C152.691 98.3833 152.957 96.76 153.026 95.1231H105.419C104.466 96.9881 104.031 99.0647 104.158 101.145C104.812 102.286 104.485 103.563 102.127 111.137C98.2974 123.409 90.3122 148.958 98.6709 156.919C98.9597 157.194 99.1412 157.558 99.1838 157.95C99.2264 158.341 99.1276 158.735 98.9044 159.063C98.2436 160.072 97.703 161.151 97.2934 162.28C102.173 163.876 132.853 171.404 154.217 163.831C154.403 163.76 154.601 163.721 154.801 163.717C155.063 163.698 155.326 163.737 155.571 163.831H155.478Z" fill="#3C1C17"/>
<path d="M129.257 102.651C138.34 102.651 145.601 102.172 150.107 101.761H150.598C151.062 101.761 151.507 101.581 151.836 101.26C152.164 100.939 152.349 100.504 152.349 100.05C152.349 99.5966 152.164 99.1614 151.836 98.8406C151.507 98.5197 151.062 98.3395 150.598 98.3395H149.85C135.867 99.517 121.806 99.517 107.823 98.3395C107.584 98.2843 107.335 98.2792 107.093 98.3244C106.851 98.3696 106.622 98.4641 106.42 98.6018C106.218 98.7395 106.048 98.9172 105.921 99.1233C105.794 99.3295 105.713 99.5595 105.684 99.7982C105.654 100.037 105.676 100.279 105.749 100.509C105.821 100.739 105.943 100.951 106.105 101.132C106.267 101.313 106.467 101.459 106.69 101.559C106.914 101.66 107.157 101.713 107.403 101.716C115.365 102.4 122.766 102.651 129.257 102.651Z" fill="#3C1C17"/>
<path d="M98.8336 166.157C100.094 166.157 101.168 164.811 103.13 159.61C103.216 159.408 103.26 159.191 103.26 158.972C103.26 158.753 103.216 158.535 103.13 158.333C100.094 151.49 103.947 119.964 105.698 108.353C105.733 108.157 105.733 107.957 105.698 107.76L104.39 101.579C104.3 101.134 104.033 100.743 103.648 100.491C103.263 100.238 102.791 100.145 102.336 100.233C101.879 100.326 101.478 100.592 101.221 100.972C100.963 101.352 100.869 101.815 100.958 102.263L102.196 108.148C101.402 113.6 96.2886 149.208 99.6741 159.017C99.17 160.357 98.5692 161.661 97.8763 162.918C97.5708 163.08 97.3215 163.327 97.1601 163.628C96.9988 163.928 96.9327 164.269 96.9702 164.607C97.0078 164.944 97.1473 165.263 97.371 165.523C97.5947 165.783 97.8925 165.972 98.2265 166.066C98.4253 166.116 98.6287 166.146 98.8336 166.157Z" fill="#3C1C17"/>
<path d="M150.924 117.774H111.302V147.748H150.924V117.774Z" fill="#EED8A3"/>
<path d="M101.239 160.728C96.5692 160.158 96.1256 159.497 95.7987 158.858C95.6016 158.511 95.5355 158.108 95.6122 157.719C95.6888 157.329 95.9033 156.979 96.218 156.729C96.5327 156.478 96.9275 156.344 97.3332 156.35C97.739 156.355 98.1298 156.5 98.4371 156.759C99.4974 157.017 100.574 157.208 101.659 157.329C102.088 157.397 102.477 157.617 102.748 157.949C103.02 158.28 103.156 158.698 103.13 159.122C103.104 159.546 102.917 159.945 102.607 160.242C102.296 160.539 101.883 160.712 101.449 160.728H101.239Z" fill="#3C1C17"/>
<path d="M114.641 137.552V128.085H120.828V130.024H116.742V132.123H120.478V133.971H116.742V137.552H114.641Z" fill="#3C1C17"/>
<path d="M121.716 134.427V131.211C121.79 130.301 122.212 129.453 122.898 128.834C123.583 128.215 124.483 127.871 125.417 127.871C126.35 127.871 127.25 128.215 127.935 128.834C128.621 129.453 129.043 130.301 129.117 131.211V134.427C129.043 135.336 128.621 136.185 127.935 136.804C127.25 137.423 126.35 137.767 125.417 137.767C124.483 137.767 123.583 137.423 122.898 136.804C122.212 136.185 121.79 135.336 121.716 134.427ZM126.969 134.427V131.188C126.923 130.818 126.739 130.477 126.453 130.23C126.167 129.982 125.798 129.846 125.417 129.846C125.035 129.846 124.666 129.982 124.38 130.23C124.094 130.477 123.91 130.818 123.864 131.188V134.427C123.91 134.797 124.094 135.138 124.38 135.385C124.666 135.633 125.035 135.769 125.417 135.769C125.798 135.769 126.167 135.633 126.453 135.385C126.739 135.138 126.923 134.797 126.969 134.427Z" fill="#3C1C17"/>
<path d="M129.98 134.427V131.211C130.054 130.301 130.476 129.453 131.162 128.834C131.848 128.215 132.748 127.871 133.681 127.871C134.615 127.871 135.514 128.215 136.2 128.834C136.886 129.453 137.308 130.301 137.382 131.211V134.427C137.308 135.336 136.886 136.185 136.2 136.804C135.514 137.423 134.615 137.767 133.681 137.767C132.748 137.767 131.848 137.423 131.162 136.804C130.476 136.185 130.054 135.336 129.98 134.427ZM135.257 134.427V131.188C135.257 130.783 135.092 130.394 134.799 130.107C134.506 129.821 134.108 129.66 133.693 129.66C133.278 129.66 132.88 129.821 132.587 130.107C132.293 130.394 132.129 130.783 132.129 131.188V134.427C132.129 134.832 132.293 135.221 132.587 135.508C132.88 135.794 133.278 135.955 133.693 135.955C134.108 135.955 134.506 135.794 134.799 135.508C135.092 135.221 135.257 134.832 135.257 134.427Z" fill="#3C1C17"/>
<path d="M138.479 137.552V128.062H141.865C142.404 128.026 142.945 128.105 143.449 128.295C143.953 128.485 144.408 128.781 144.782 129.162C145.156 129.543 145.44 129.999 145.614 130.499C145.788 130.999 145.847 131.53 145.788 132.054V133.56C145.847 134.085 145.788 134.616 145.614 135.115C145.44 135.615 145.156 136.072 144.782 136.452C144.408 136.833 143.953 137.129 143.449 137.319C142.945 137.509 142.404 137.588 141.865 137.552H138.479ZM140.628 135.727H141.795C142.043 135.734 142.29 135.69 142.52 135.599C142.75 135.508 142.958 135.371 143.131 135.198C143.304 135.024 143.439 134.817 143.527 134.59C143.614 134.364 143.652 134.121 143.639 133.879V131.735C143.652 131.493 143.614 131.251 143.527 131.024C143.439 130.797 143.304 130.59 143.131 130.417C142.958 130.243 142.75 130.107 142.52 130.015C142.29 129.924 142.043 129.881 141.795 129.887H140.628V135.727Z" fill="#3C1C17"/>
<path d="M67.1264 147.201C64.371 145.407 62.3327 142.739 61.3546 139.648C60.3765 136.557 60.5183 133.231 61.7563 130.23C62.5249 128.288 63.9273 126.648 65.7466 125.563C67.5658 124.478 69.7002 124.01 71.8194 124.23C85.3382 124.55 116.181 127.766 118.516 128.93C120.851 130.093 126.595 136.229 122.392 142.616C118.189 149.003 92.8797 153.611 84.054 152.015C77.6332 150.806 72.0763 150.555 67.1264 147.201Z" fill="#EDBD74"/>
<path d="M83.8206 153.68L80.1082 153.064C75.1365 152.64 70.337 151.077 66.0992 148.502C63.0365 146.462 60.7744 143.466 59.6841 140.005C58.5938 136.544 58.7399 132.823 60.0986 129.454C61.0191 127.217 62.6498 125.327 64.7512 124.062C66.8525 122.798 69.3136 122.225 71.7728 122.428C84.311 122.725 116.135 125.85 119.217 127.31C122.099 129.036 124.215 131.754 125.147 134.929C125.567 136.366 125.663 137.874 125.429 139.351C125.195 140.827 124.637 142.237 123.793 143.483C119.637 149.87 99.6976 153.953 88.467 153.953C86.9128 154.005 85.3572 153.913 83.8206 153.68ZM63.3674 130.868C62.2876 133.499 62.1621 136.412 63.0116 139.121C63.8612 141.831 65.6346 144.176 68.0371 145.764C71.8605 147.993 76.1596 149.328 80.5986 149.665C81.836 149.87 83.0968 150.053 84.4044 150.304C92.5997 151.809 117.232 147.293 120.851 141.727C121.431 140.882 121.817 139.925 121.982 138.921C122.147 137.917 122.088 136.889 121.809 135.91C121.134 133.679 119.679 131.75 117.699 130.458C115.364 129.477 85.8053 126.261 71.7028 125.896H71.3526C69.6486 125.778 67.9513 126.201 66.5127 127.101C65.0741 128.001 63.9711 129.33 63.3674 130.891V130.868Z" fill="#3B1A15"/>
</g>
<defs>
<clipPath id="clip0_713_926">
<rect width="170" height="216" fill="white"/>
</clipPath>
</defs>
</svg>
