<svg width="165" height="236" viewBox="0 0 165 236" fill="none" xmlns="http://www.w3.org/2000/svg">
<g clip-path="url(#clip0_713_882)">
<path d="M51.042 194.356L53.87 214.07C53.87 214.07 38.9358 218.003 44.7552 227.213C50.5746 236.423 85.9819 229.702 85.9819 229.702L90.843 194.356L95.8211 228.433C95.8211 228.433 126.835 240.456 135.552 229.702C144.269 218.949 127.793 213.523 127.793 213.523L126.835 194.356L123.866 157.441L52.3508 146.514L51.042 194.356Z" fill="#EDBC74"/>
<path d="M122.465 236C110.335 236 96.0323 230.549 95.1442 230.2L94.186 229.827L90.8906 206.951L87.5486 231.32L86.2865 231.544C82.5471 232.241 49.5939 238.091 43.3071 228.134C42.5122 227.06 41.986 225.789 41.7775 224.44C41.5691 223.09 41.6852 221.706 42.1151 220.418C43.7277 215.962 49.1265 213.573 51.9076 212.602L49.2901 194.456L50.6456 144.373L125.433 155.823L128.541 194.157L129.453 212.154C132.071 213.224 138.147 216.211 139.549 221.413C139.917 223.107 139.863 224.873 139.391 226.537C138.92 228.2 138.048 229.704 136.862 230.897C133.73 234.706 128.355 236 122.465 236ZM97.3411 227.064C106.339 230.375 127.887 236.199 134.174 228.483C134.953 227.737 135.541 226.794 135.884 225.74C136.228 224.687 136.315 223.558 136.137 222.459C135.109 218.675 129.359 216.012 127.209 215.315L126.041 214.942L125.012 194.456L122.208 159.084L54.0344 148.654L52.8191 194.157L55.834 215.265L54.2915 215.688C52.2115 216.236 46.579 218.377 45.3871 221.687C45.1757 222.417 45.1398 223.191 45.2827 223.939C45.4256 224.687 45.7428 225.385 46.2051 225.969C49.8743 231.768 71.0719 230.375 84.4402 228.01L90.7971 181.711L97.3411 227.064Z" fill="#3B1B16"/>
<path d="M122.488 236C110.311 236 95.985 230.524 95.0969 230.2L94.0919 229.802L90.8901 207.524L87.6181 231.296L86.3327 231.545C82.57 232.242 49.5232 238.091 43.213 228.11C42.4037 227.023 41.8727 225.732 41.672 224.362C41.4713 222.992 41.6077 221.59 42.0678 220.293C43.7272 215.962 49.0792 213.598 51.8136 212.627L49.2194 194.555L56.5579 142.432L125.549 155.873L128.541 194.157L129.452 212.154C132.047 213.224 138.053 216.186 139.502 221.264C139.893 222.968 139.855 224.751 139.391 226.434C138.928 228.117 138.055 229.639 136.861 230.848C133.799 234.706 128.401 236 122.488 236ZM97.4106 227.089C106.409 230.375 127.793 236.174 134.08 228.508C134.883 227.755 135.485 226.791 135.825 225.711C136.166 224.632 136.233 223.475 136.02 222.359C134.945 218.601 129.265 215.987 127.162 215.315L125.97 214.917L124.918 194.456L122.137 159.01L47.0693 144.373L52.8653 194.157L55.9269 215.39L54.3377 215.813C52.3044 216.336 46.7421 218.451 45.5034 221.712C45.2633 222.461 45.2103 223.263 45.3496 224.04C45.4889 224.817 45.8158 225.542 46.298 226.143C49.9439 231.893 71.0246 230.499 84.3695 228.159L90.7966 181.238L97.4106 227.089Z" fill="#3B1B16"/>
<path d="M78.1527 132.151C78.1527 132.151 133.706 123.514 126.414 122.941L139.478 193.833C139.478 193.833 99.6541 230.723 35.9912 201.624C35.9912 201.624 46.0174 116.395 47.0224 111.889C48.0273 107.384 45.0826 118.933 45.0826 118.933L112.368 89.6108L74.7872 115.722C74.7872 115.722 79.8588 129.438 78.1527 132.151Z" fill="#476FB5"/>
<path d="M83.5752 214.618C66.9341 214.429 50.5042 210.626 35.2905 203.441L34.0752 202.869L34.2388 201.475C34.566 198.662 40.9463 144.572 43.9144 121.572L42.4654 122.194L43.4003 118.535C44.3819 114.677 44.9895 112.337 45.4803 110.918C45.4803 110.918 45.4803 110.769 45.4803 110.719C46.1581 108.752 46.5787 108.877 47.6071 109.151C49.3132 109.624 48.9158 111.391 48.6588 112.436C48.6588 112.835 48.4017 113.955 48.168 115.648L111.691 87.918L113.327 91.2037L76.9845 116.444C78.6649 120.754 79.7588 125.297 80.2331 129.935C95.7282 127.446 118.071 123.762 124.475 122.144L124.241 120.9L126.578 121.074C128.518 121.223 128.915 122.393 128.915 123.065C128.953 123.286 128.939 123.513 128.874 123.726C128.808 123.939 128.694 124.131 128.541 124.285L141.395 194.53L140.624 195.252C140.344 195.526 119.193 214.618 83.5752 214.618ZM37.8847 200.554C94.3025 225.595 131.79 197.816 137.562 193.086L125.129 125.729C119.987 127.197 107.694 129.438 78.3868 133.993L74.5306 134.59L76.6573 131.13C77.1949 129.786 75.5823 122.891 73.1984 116.394L72.6843 114.975L95.8217 98.8455L47.6538 119.929C45.4803 136.607 40.7126 176.732 37.8847 200.554Z" fill="#3C1B16"/>
<path d="M147.238 57.4503L156.095 31.9112C156.239 31.398 156.257 30.8542 156.147 30.3315C156.037 29.8089 155.804 29.3249 155.469 28.9256C155.134 28.5263 154.708 28.225 154.233 28.0505C153.758 27.876 153.248 27.834 152.753 27.9285L125.058 31.5378C124.799 31.5598 124.554 31.6714 124.36 31.8557C124.166 32.0399 124.034 32.2867 123.983 32.5584C111.717 27.6481 98.7125 25.1597 85.6081 25.2153C72.3126 24.8397 59.0681 27.1106 46.555 31.9112C46.5512 31.5966 46.4401 31.2942 46.2422 31.0605C46.0443 30.8269 45.7733 30.678 45.4799 30.6417L17.8552 26.3852C17.3616 26.2738 16.8494 26.3004 16.3683 26.4625C15.8872 26.6246 15.4538 26.9167 15.1102 27.3102C14.7666 27.7037 14.5245 28.1854 14.4076 28.7081C14.2907 29.2309 14.3029 29.777 14.4431 30.2933L22.88 56.0066C22.9386 56.189 23.0369 56.354 23.1669 56.4882C23.2969 56.6223 23.4549 56.7217 23.6279 56.7782C14.6067 78.5088 6.21643 123.613 63.1017 139.394H63.686C68.3602 140.44 121.903 150.87 147.518 112.237C150.112 108.329 151.818 100.488 152.192 93.0955C152.625 81.1207 150.789 69.1759 146.794 57.973C146.985 57.8469 147.139 57.6657 147.238 57.4503Z" fill="#EDBC74"/>
<path d="M84.9074 143.427C77.6319 143.467 70.3695 142.767 63.219 141.336C62.9899 141.318 62.763 141.276 62.5413 141.212C41.0866 135.238 26.7368 124.459 19.9124 109.524C10.8444 89.6107 17.5753 67.208 21.525 57.2512C21.4051 57.0547 21.3034 56.8463 21.2212 56.6289L12.7842 30.8907C12.5352 30.1288 12.4754 29.3113 12.6105 28.5175C12.7457 27.7238 13.0712 26.9807 13.5554 26.3604C14.1149 25.6454 14.842 25.1007 15.6629 24.7816C16.4838 24.4624 17.3693 24.3802 18.2297 24.5433L45.8543 28.7749C46.4579 28.8673 47.0206 29.1539 47.4669 29.5963C59.7492 25.1592 72.6655 23.0447 85.6319 23.3485C98.5024 23.3334 111.279 25.6828 123.4 30.2933C123.824 29.9596 124.324 29.7533 124.849 29.6959L152.52 26.0866C153.363 25.9619 154.223 26.073 155.014 26.4091C155.804 26.7451 156.499 27.2945 157.031 28.0033C157.509 28.632 157.826 29.3829 157.949 30.1818C158.072 30.9806 157.997 31.7998 157.732 32.5585L148.874 58.0975C148.826 58.2373 148.763 58.3709 148.687 58.4958C152.519 69.6437 154.265 81.4823 153.829 93.3445C153.478 99.9408 151.982 108.678 148.851 113.432C132.211 138.473 104.329 143.427 84.9074 143.427ZM24.4464 55.1105L25.9889 55.7079L25.2176 57.5499C21.6419 66.1874 14.2566 88.3661 23.0675 107.832C29.4244 121.92 43.0264 131.927 63.4294 137.702H63.9202C66.2573 138.225 120.408 149.849 145.976 111.292C148.196 107.981 149.926 100.688 150.323 93.1453C150.756 81.4166 148.96 69.7156 145.041 58.7447L144.527 57.2512L145.672 56.5791L154.436 31.289C154.494 31.1306 154.509 30.9584 154.48 30.7915C154.451 30.6246 154.379 30.4694 154.273 30.3431C154.117 30.1417 153.914 29.9874 153.684 29.8957C153.454 29.8039 153.206 29.778 152.964 29.8204L125.62 33.355L125.246 35.0974L123.33 34.276C111.265 29.4777 98.4864 27.0407 85.6086 27.0823C72.5308 26.7381 59.5056 28.9658 47.1865 33.6537L44.8494 34.5996V32.4091L17.5987 28.2273C17.3553 28.187 17.1064 28.2114 16.874 28.2983C16.6416 28.3851 16.4329 28.5317 16.2665 28.7251C16.1644 28.8541 16.0957 29.0091 16.067 29.175C16.0383 29.3408 16.0507 29.5118 16.1029 29.671L24.4464 55.1105Z" fill="#3B1B16"/>
<path d="M163.247 91.179L136.955 90.8803C136.49 90.8803 136.044 90.6836 135.716 90.3335C135.387 89.9834 135.202 89.5085 135.202 89.0134C135.202 88.5182 135.387 88.0434 135.716 87.6933C136.044 87.3432 136.49 87.1465 136.955 87.1465L163.271 87.4452C163.734 87.4582 164.174 87.6632 164.497 88.0166C164.82 88.37 165 88.8437 165 89.337C164.994 89.8278 164.807 90.2963 164.479 90.641C164.151 90.9857 163.708 91.179 163.247 91.179Z" fill="#3C1B16"/>
<path d="M157.288 114.353C157.052 114.352 156.82 114.3 156.603 114.202C156.386 114.104 156.19 113.96 156.026 113.781C148.594 105.591 132.094 103.077 131.93 103.052C131.469 102.986 131.05 102.727 130.768 102.333C130.485 101.939 130.361 101.441 130.423 100.949C130.485 100.457 130.728 100.012 131.098 99.7104C131.468 99.4093 131.936 99.2773 132.398 99.3433C133.216 99.5673 150.277 102.057 158.55 111.192C158.788 111.456 158.949 111.788 159.011 112.148C159.073 112.508 159.034 112.88 158.9 113.217C158.765 113.554 158.541 113.841 158.254 114.043C157.968 114.245 157.632 114.353 157.288 114.353Z" fill="#3C1B16"/>
<path d="M15.1211 122.543C14.7023 122.499 14.3124 122.296 14.0227 121.97C13.7056 121.653 13.5145 121.218 13.4884 120.755C13.4623 120.293 13.6033 119.837 13.8825 119.481C20.1459 112.014 32.8832 110.097 33.4207 110.022C33.8817 109.958 34.348 110.089 34.7194 110.387C35.0908 110.685 35.3378 111.126 35.4073 111.615C35.461 112.109 35.3326 112.606 35.0491 113C34.7657 113.395 34.3495 113.657 33.8881 113.731C33.7713 113.731 21.8988 115.474 16.5 121.946C16.3275 122.15 16.1138 122.309 15.875 122.413C15.6362 122.516 15.3784 122.561 15.1211 122.543Z" fill="#3C1B16"/>
<path d="M28.0453 97.6756L1.72946 97.3769C1.26653 97.3639 0.826665 97.1588 0.503605 96.8055C0.180545 96.4521 -0.00016027 95.9783 1.0666e-07 95.4851C0.00614489 94.9943 0.193527 94.5258 0.521583 94.181C0.84964 93.8363 1.29197 93.643 1.75283 93.6431L28.0453 93.9418C28.5102 93.9418 28.956 94.1385 29.2848 94.4886C29.6135 94.8387 29.7982 95.3135 29.7982 95.8087C29.7982 96.3038 29.6135 96.7786 29.2848 97.1288C28.956 97.4789 28.5102 97.6756 28.0453 97.6756Z" fill="#3C1B16"/>
<path d="M65.4945 84.7856C65.5671 81.7072 63.1783 79.1461 60.1589 79.0652C57.1395 78.9844 54.6329 81.4144 54.5603 84.4929C54.4876 87.5713 56.8764 90.1324 59.8958 90.2133C62.9152 90.2941 65.4218 87.8641 65.4945 84.7856Z" fill="#3C1B16"/>
<path d="M112.365 83.4228C112.437 80.3444 110.048 77.7833 107.029 77.7024C104.01 77.6216 101.503 80.0516 101.43 83.1301C101.358 86.2085 103.747 88.7696 106.766 88.8505C109.785 88.9313 112.292 86.5013 112.365 83.4228Z" fill="#3C1B16"/>
<path d="M78.8078 96.9041C78.5759 96.4618 78.4648 95.9592 78.4872 95.4532C78.5096 94.9472 78.6645 94.4579 78.9345 94.0408C79.2045 93.6238 79.5787 93.2955 80.0148 93.0933C80.4509 92.891 80.9315 92.8229 81.402 92.8965H84.5571H87.7356C88.1989 92.8665 88.6612 92.972 89.0723 93.2014C89.4835 93.4309 89.828 93.7756 90.0686 94.1984C90.3091 94.6213 90.4367 95.106 90.4374 95.6004C90.4382 96.0948 90.3121 96.58 90.0727 97.0036L88.4601 99.4928L86.8241 101.982C86.5382 102.404 86.1637 102.748 85.7305 102.988C85.2974 103.228 84.8175 103.357 84.3294 103.364C83.8412 103.371 83.3582 103.257 82.9189 103.03C82.4796 102.803 82.0962 102.47 81.7993 102.057L80.2802 99.5675L78.8078 96.9041Z" fill="#3C1B16"/>
<path d="M90.7264 108.952C89.6968 108.992 88.67 108.813 87.7066 108.424C86.7433 108.035 85.8628 107.444 85.1173 106.687C84.445 107.593 83.5843 108.322 82.6028 108.814C81.6214 109.306 80.5461 109.55 79.4615 109.524C78.2695 109.27 77.1439 108.741 76.1631 107.976C75.1823 107.211 74.3699 106.227 73.7824 105.093C73.7213 104.974 73.6831 104.844 73.6701 104.709C73.657 104.574 73.6694 104.438 73.7064 104.308C73.7433 104.178 73.8043 104.057 73.8855 103.953C73.9668 103.848 74.0668 103.762 74.1797 103.7C74.4124 103.566 74.6853 103.535 74.939 103.615C75.1928 103.694 75.407 103.876 75.5352 104.123C75.5352 104.123 77.1244 107.234 79.4615 107.458C80.4058 107.421 81.3268 107.136 82.1423 106.628C82.9579 106.12 83.6427 105.404 84.1358 104.546L84.8836 103.575L85.6783 104.521C85.6783 104.521 88.0154 107.234 90.3525 107.01C91.7547 106.761 92.9233 105.641 93.9282 103.451C93.9854 103.325 94.0655 103.213 94.1638 103.121C94.2621 103.03 94.3767 102.96 94.5008 102.915C94.625 102.871 94.7561 102.854 94.8865 102.865C95.017 102.876 95.1441 102.914 95.2604 102.978C95.3763 103.034 95.4805 103.114 95.567 103.214C95.6534 103.313 95.7203 103.43 95.7639 103.558C95.8074 103.685 95.8266 103.821 95.8204 103.956C95.8142 104.092 95.7828 104.224 95.7278 104.347C95.314 105.493 94.6411 106.513 93.7687 107.317C92.8963 108.12 91.8513 108.681 90.7264 108.952Z" fill="#3C1B16"/>
<path d="M55.6697 35.9937C55.6697 35.9937 55.0854 60.8855 61.6293 61.1096C68.1732 61.3336 73.6654 36.2177 73.6654 36.2177L55.6697 35.9937Z" fill="#D18326"/>
<path d="M96.873 38.1841C96.873 38.1841 98.1585 63.4494 104.749 63.7232C111.76 63.997 114.869 38.5077 114.869 38.5077L96.873 38.1841Z" fill="#D18326"/>
<path d="M74.2266 37.7861C74.2266 37.7861 75.5353 67.6564 83.0375 67.6564C90.5396 67.6564 94.91 38.1097 94.91 38.1097L74.2266 37.7861Z" fill="#D18326"/>
<path d="M96.3354 12.5951C93.4607 12.2964 91.6612 12.2964 91.6612 12.2964H91.147C79.2745 12.4457 49.5932 15.4328 47.2093 43.013C47.187 43.6124 47.2798 44.2104 47.482 44.7702C47.6843 45.3301 47.9918 45.8401 48.3857 46.2689C48.7796 46.6977 49.2515 47.0364 49.7726 47.2641C50.2937 47.4918 50.853 47.6037 51.4161 47.5931L90.1654 48.9621H94.5358L131.158 49.9578C133.495 50.0823 133.753 48.6385 133.332 46.224C128.214 18.2953 108.138 13.765 96.3354 12.5951Z" fill="#476FB5"/>
<path d="M131.415 51.9245H131.018L88.2256 50.8044L51.4161 49.4602C50.5384 49.4653 49.6694 49.2754 48.8645 48.9025C48.0597 48.5296 47.3367 47.982 46.7418 47.2946C46.2394 46.701 45.8576 46.0033 45.6203 45.2451C45.383 44.4869 45.2954 43.6847 45.3629 42.8888C47.9338 13.0185 80.9571 10.5293 91.0067 10.5293H91.4741C91.6144 10.5293 93.4373 10.5293 96.3587 10.8529C118.374 13.0434 130.971 24.5683 134.874 46.0998C135.118 46.8853 135.19 47.7198 135.085 48.5395C134.98 49.3592 134.7 50.1424 134.267 50.8293C133.889 51.2137 133.441 51.5097 132.95 51.6984C132.459 51.887 131.936 51.964 131.415 51.9245ZM91.9182 47.1453H94.5358L131.158 48.1409H131.743C131.739 47.6465 131.684 47.1539 131.579 46.6723C128.003 26.9828 116.434 16.4287 96.1717 14.3129H95.8212C93.2036 14.0639 91.5676 14.0391 91.5442 14.0391H91.1469C79.1809 14.0391 51.1824 17.1008 49.079 43.063C49.0548 43.3521 49.0881 43.6434 49.1767 43.9179C49.2653 44.1924 49.4072 44.4439 49.5931 44.6561C49.8484 44.9468 50.1556 45.1802 50.4967 45.3426C50.8379 45.505 51.2061 45.5932 51.5797 45.602L91.9182 47.1453Z" fill="#3C1B16"/>
<path d="M95.2371 18.3949C94.1802 17.9394 93.3308 17.0642 92.8685 15.9541C92.4062 14.8439 92.3673 13.5859 92.7598 12.4457C94.536 7.5918 98.1585 0.895884 103.417 1.99113C108.676 3.08637 109.704 8.23899 109.564 11.3256C109.535 12.0347 109.356 12.7277 109.041 13.3528C108.725 13.9778 108.28 14.5187 107.741 14.9349L102.506 19.067C101.886 19.5478 101.162 19.8528 100.402 19.9529C99.6411 20.0531 98.8691 19.9452 98.1585 19.6395L95.2371 18.3949Z" fill="#476FB5"/>
<path d="M99.7948 21.8798C98.9913 21.8687 98.1975 21.6911 97.4576 21.3571L94.6531 20.1374C93.136 19.4933 91.9178 18.2392 91.2618 16.6462C90.6058 15.0533 90.5647 13.2493 91.1474 11.6243C94.3025 3.21087 98.7898 -0.821615 103.768 0.149168C108.746 1.11995 111.597 5.2769 111.34 11.4252C111.289 12.4017 111.037 13.3542 110.6 14.2147C110.164 15.0753 109.555 15.8227 108.816 16.4036L103.534 20.5854C102.447 21.4254 101.138 21.8783 99.7948 21.8798ZM95.8217 16.6774L98.6028 17.922C99.0518 18.1214 99.5416 18.1942 100.025 18.1331C100.508 18.0721 100.968 17.8793 101.361 17.5735L106.619 13.4663C106.948 13.2099 107.218 12.8772 107.408 12.4934C107.598 12.1096 107.704 11.6848 107.718 11.251C107.905 6.99444 106.315 4.48036 103.043 3.78338C98.8365 2.93706 95.8217 9.20982 94.3727 13.0183C94.1289 13.7098 94.1432 14.4746 94.4128 15.1553C94.6823 15.8359 95.1865 16.3806 95.8217 16.6774Z" fill="#3C1B16"/>
<path d="M121.529 38.2341H120.945C120.715 38.2213 120.489 38.1603 120.281 38.0546C120.073 37.9488 119.886 37.8003 119.732 37.6176C119.578 37.4349 119.459 37.2217 119.383 36.99C119.306 36.7583 119.273 36.5129 119.286 36.2676C119.295 36.0235 119.349 35.7836 119.446 35.5621C119.543 35.3406 119.68 35.1418 119.85 34.9773C120.019 34.8129 120.218 34.686 120.434 34.6041C120.65 34.5222 120.88 34.4869 121.109 34.5003C123.766 34.527 126.409 34.0984 128.938 33.2308C129.384 33.0904 129.865 33.1422 130.275 33.3749C130.686 33.6076 130.995 34.0028 131.135 34.4754C131.203 34.7091 131.227 34.9549 131.205 35.1984C131.183 35.442 131.115 35.6784 131.007 35.8939C130.898 36.1094 130.75 36.2997 130.571 36.4536C130.393 36.6075 130.187 36.722 129.966 36.7903C127.236 37.7091 124.393 38.1955 121.529 38.2341Z" fill="#3C1B16"/>
<path d="M111.457 30.0195C110.992 30.0195 110.546 29.8228 110.218 29.4727C109.889 29.1226 109.704 28.6477 109.704 28.1526C109.704 27.6574 109.889 27.1826 110.218 26.8325C110.546 26.4824 110.992 26.2857 111.457 26.2857C115.648 26.0871 119.807 25.4196 123.867 24.2943C124.09 24.231 124.322 24.2157 124.55 24.2493C124.778 24.2828 124.998 24.3646 125.196 24.4898C125.394 24.6151 125.567 24.7812 125.704 24.9784C125.841 25.1757 125.939 25.4001 125.994 25.6385C126.107 26.1171 126.038 26.624 125.802 27.0485C125.565 27.473 125.181 27.7805 124.732 27.9037C120.369 29.1262 115.894 29.8357 111.387 30.0195H111.457Z" fill="#3C1B16"/>
<g opacity="0.7">
<path d="M23.7682 33.0067L40.128 36.2177C40.2574 36.2369 40.3791 36.2942 40.4796 36.3832C40.58 36.4722 40.6551 36.5892 40.6964 36.7212C40.7377 36.8532 40.7436 36.9948 40.7134 37.1302C40.6831 37.2655 40.618 37.3892 40.5253 37.4872L28.8398 49.3855C28.7504 49.4819 28.6396 49.5523 28.5176 49.5903C28.3956 49.6283 28.2665 49.6326 28.1425 49.6027C28.0186 49.5728 27.9038 49.5097 27.8091 49.4195C27.7143 49.3292 27.6427 49.2147 27.6011 49.0868L22.9035 34.0024C22.8692 33.8714 22.8669 33.7333 22.8969 33.6011C22.9269 33.4689 22.9882 33.3472 23.0748 33.2474C23.1615 33.1475 23.2707 33.073 23.3921 33.0309C23.5135 32.9888 23.643 32.9804 23.7682 33.0067Z" fill="#BC935E"/>
</g>
<g opacity="0.7">
<path d="M149.037 32.3593L132.677 36.1429C132.547 36.1661 132.425 36.2281 132.327 36.3218C132.228 36.4156 132.156 36.5371 132.119 36.6725C132.083 36.8078 132.083 36.9514 132.119 37.0868C132.156 37.2221 132.228 37.3436 132.327 37.4373L144.34 48.9124C144.432 49.0021 144.545 49.0655 144.667 49.0968C144.788 49.1282 144.916 49.1264 145.037 49.0917C145.158 49.057 145.268 48.9905 145.359 48.8983C145.45 48.8061 145.517 48.6911 145.555 48.5639L149.925 33.3301C149.964 33.1976 149.968 33.0564 149.937 32.9216C149.907 32.7867 149.843 32.6631 149.752 32.5637C149.661 32.4643 149.547 32.3929 149.421 32.357C149.295 32.321 149.163 32.3218 149.037 32.3593Z" fill="#BC935E"/>
</g>
<path d="M48.2143 107.558C48.2143 107.558 45.6668 97.9995 48.2143 97.9995H113.653C113.653 97.9995 117.486 106.687 115.78 109.748C114.074 112.81 138.871 170.684 122.628 186.913C122.628 186.913 126.461 193.012 124.755 194.381C123.049 195.75 78.0124 208.32 47.1392 196.87C47.1392 196.87 41.016 199.932 41.016 197.741C41.016 195.551 45.6902 189.477 46.999 189.925C48.3077 190.373 27.7178 157.616 48.2143 107.558Z" fill="#A7804D"/>
<path d="M77.5687 202.645C67.2819 202.851 57.0288 201.331 47.1862 198.139C45.1997 199.085 42.0913 200.305 40.6657 199.334C40.4094 199.151 40.2002 198.902 40.0573 198.611C39.9144 198.32 39.8423 197.995 39.8477 197.666C39.8477 195.177 43.3066 190.746 45.1062 189.328L45.5269 189.029C45.5269 189.029 45.41 188.78 45.3633 188.631C32.2054 157.441 38.9596 127.347 47.0226 107.483C46.3683 104.994 45.2464 99.5674 46.6253 97.5262C46.8125 97.252 47.0589 97.0298 47.3436 96.8782C47.6283 96.7265 47.943 96.65 48.2613 96.655H113.7C113.919 96.6545 114.134 96.7196 114.32 96.8429C114.506 96.9661 114.656 97.1425 114.752 97.352C115.453 98.9202 118.772 106.836 116.832 110.271C117.632 113.947 118.631 117.571 119.824 121.124C125.269 139.743 135.552 173.919 124.077 186.963C125.503 189.452 127.489 193.609 125.409 195.202C123.867 196.447 101.337 202.645 77.5687 202.645ZM47.1862 195.55C47.3099 195.527 47.4365 195.527 47.5602 195.55C77.8024 206.627 122.348 194.206 124.171 193.061C123.664 191.027 122.764 189.128 121.53 187.486C121.382 187.234 121.32 186.936 121.354 186.641C121.388 186.347 121.516 186.074 121.717 185.868C133.169 174.517 122.932 140.34 117.44 121.995C114.565 112.436 114.004 110.271 114.659 109.101C115.57 107.508 114.168 102.629 112.789 99.1442H48.3782C48.1903 101.849 48.5162 104.567 49.3364 107.134C49.3885 107.264 49.4153 107.404 49.4153 107.545C49.4153 107.686 49.3885 107.826 49.3364 107.956C41.3902 127.372 34.6126 156.943 47.4901 187.61C48.2613 189.427 48.4717 189.975 47.9107 190.672C47.7805 190.819 47.6196 190.932 47.441 191.001C47.2625 191.07 47.0711 191.094 46.8824 191.07C44.8714 192.677 43.2654 194.789 42.2082 197.218C43.7248 196.921 45.1955 196.401 46.5786 195.675C46.7398 195.595 46.9151 195.553 47.0928 195.55H47.1862Z" fill="#3C1B16"/>
<path d="M80.7236 109.524C68.781 109.524 59.269 108.877 53.3795 108.329H52.6783C52.3684 108.329 52.0712 108.198 51.852 107.965C51.6329 107.731 51.5098 107.415 51.5098 107.085C51.5098 106.755 51.6329 106.438 51.852 106.205C52.0712 105.971 52.3684 105.84 52.6783 105.84H53.543C72.0684 107.465 90.6877 107.465 109.213 105.84C109.367 105.827 109.521 105.845 109.668 105.896C109.815 105.946 109.95 106.027 110.068 106.133C110.185 106.24 110.281 106.37 110.351 106.516C110.421 106.662 110.463 106.822 110.475 106.985C110.495 107.314 110.394 107.638 110.193 107.889C109.992 108.14 109.708 108.298 109.4 108.329C98.9297 109.3 89.2074 109.524 80.7236 109.524Z" fill="#3C1B16"/>
<path d="M120.782 196.795C119.964 196.795 118.772 195.75 116.108 188.556C116.044 188.403 116.011 188.238 116.011 188.071C116.011 187.903 116.044 187.738 116.108 187.585C121.039 176.085 112.883 118.983 112.813 118.411C112.789 118.262 112.789 118.111 112.813 117.963L114.519 109.524C114.552 109.364 114.614 109.212 114.703 109.077C114.792 108.943 114.904 108.828 115.035 108.74C115.165 108.652 115.311 108.593 115.463 108.565C115.615 108.537 115.771 108.542 115.921 108.578C116.071 108.611 116.213 108.675 116.339 108.767C116.465 108.858 116.573 108.976 116.656 109.113C116.739 109.25 116.795 109.403 116.821 109.564C116.847 109.724 116.843 109.888 116.809 110.047L115.15 118.311C115.781 122.792 123.119 175.313 118.422 188.158C119.17 190.314 120.109 192.389 121.226 194.356C121.536 194.356 121.833 194.487 122.052 194.72C122.272 194.954 122.395 195.27 122.395 195.6C122.395 195.93 122.272 196.247 122.052 196.48C121.833 196.714 121.536 196.845 121.226 196.845C121.077 196.852 120.927 196.835 120.782 196.795Z" fill="#3C1B16"/>
<path d="M104.328 131.504H52.1875V172.65H104.328V131.504Z" fill="#EFD8A4"/>
<path d="M117.299 189.328C117.146 189.338 116.992 189.315 116.847 189.262C116.702 189.208 116.568 189.125 116.453 189.016C116.338 188.908 116.244 188.776 116.176 188.629C116.109 188.481 116.07 188.321 116.061 188.158C116.051 187.995 116.073 187.831 116.123 187.676C116.173 187.521 116.251 187.379 116.353 187.256C116.455 187.134 116.579 187.034 116.717 186.962C116.856 186.89 117.006 186.849 117.159 186.839C118.743 186.687 120.308 186.371 121.833 185.893C122.013 185.707 122.244 185.587 122.492 185.551C122.74 185.515 122.993 185.565 123.212 185.694C123.349 185.767 123.47 185.869 123.569 185.993C123.668 186.118 123.742 186.262 123.788 186.417C123.834 186.573 123.85 186.736 123.835 186.899C123.821 187.061 123.776 187.218 123.703 187.361C123.469 187.859 123.095 188.606 117.416 189.303L117.299 189.328Z" fill="#3C1B16"/>
<path d="M58.9648 158.636V145.643H67.098V148.132H61.8161V151.019H66.7007V153.508H61.8161V158.487L58.9648 158.636Z" fill="#3C1B16"/>
<path d="M68.2666 154.33V149.924C68.2718 149.274 68.406 148.633 68.6604 148.042C68.9149 147.452 69.2838 146.925 69.743 146.497C70.2021 146.069 70.7411 145.75 71.3245 145.56C71.9079 145.369 72.5224 145.313 73.1278 145.394C73.7325 145.317 74.3456 145.376 74.9274 145.568C75.5092 145.76 76.0466 146.08 76.5049 146.507C76.9633 146.934 77.3322 147.459 77.5879 148.047C77.8435 148.636 77.9802 149.275 77.989 149.924V154.33C77.9769 154.976 77.8379 155.613 77.5808 156.199C77.3238 156.784 76.9544 157.306 76.4964 157.731C76.0385 158.155 75.5021 158.473 74.9219 158.663C74.3417 158.853 73.7306 158.912 73.1278 158.835C72.5244 158.916 71.9117 158.86 71.33 158.671C70.7482 158.482 70.2104 158.165 69.7516 157.74C69.2928 157.315 68.9234 156.791 68.6675 156.204C68.4116 155.616 68.275 154.978 68.2666 154.33ZM75.1611 154.33V149.899C75.1071 149.362 74.8683 148.864 74.4908 148.503C74.1133 148.142 73.6237 147.942 73.1161 147.942C72.6086 147.942 72.1189 148.142 71.7414 148.503C71.3639 148.864 71.1252 149.362 71.0711 149.899V154.33C71.1252 154.867 71.3639 155.365 71.7414 155.726C72.1189 156.087 72.6086 156.287 73.1161 156.287C73.6237 156.287 74.1133 156.087 74.4908 155.726C74.8683 155.365 75.1071 154.867 75.1611 154.33Z" fill="#3C1B16"/>
<path d="M79.1582 154.33V149.924C79.1611 149.262 79.298 148.608 79.5594 148.008C79.8208 147.408 80.2007 146.874 80.6731 146.444C81.1455 146.014 81.6994 145.698 82.2971 145.517C82.8947 145.335 83.522 145.293 84.1363 145.393C84.7262 145.346 85.3191 145.427 85.8786 145.632C86.4381 145.837 86.9523 146.162 87.3899 146.586C87.8275 147.01 88.1792 147.525 88.4235 148.099C88.6678 148.673 88.7994 149.294 88.8105 149.924V154.33C88.7994 154.96 88.6678 155.581 88.4235 156.155C88.1792 156.729 87.8275 157.243 87.3899 157.667C86.9523 158.092 86.4381 158.416 85.8786 158.621C85.3191 158.826 84.7262 158.907 84.1363 158.86C83.5226 158.956 82.8968 158.911 82.3008 158.728C81.7049 158.545 81.1526 158.228 80.6811 157.799C80.2096 157.37 79.8297 156.838 79.567 156.24C79.3044 155.641 79.165 154.99 79.1582 154.33ZM86.1695 154.33V149.899C86.1155 149.361 85.8768 148.864 85.4993 148.503C85.1217 148.141 84.6321 147.942 84.1246 147.942C83.617 147.942 83.1274 148.141 82.7499 148.503C82.3724 148.864 82.1336 149.361 82.0796 149.899V154.33C82.1336 154.867 82.3724 155.364 82.7499 155.726C83.1274 156.087 83.617 156.287 84.1246 156.287C84.6321 156.287 85.1217 156.087 85.4993 155.726C85.8768 155.364 86.1155 154.867 86.1695 154.33Z" fill="#3C1B16"/>
<path d="M90.3291 158.636V145.618H94.7696C95.4629 145.539 96.1638 145.627 96.8211 145.875C97.4784 146.122 98.0754 146.523 98.5683 147.048C99.0613 147.573 99.4377 148.209 99.6701 148.909C99.9025 149.609 99.9849 150.356 99.9113 151.094V153.135C99.9886 153.875 99.9091 154.625 99.6784 155.328C99.4477 156.031 99.0718 156.67 98.5784 157.198C98.085 157.726 97.4866 158.129 96.8274 158.378C96.1683 158.627 95.465 158.715 94.7696 158.636H90.3291ZM93.157 156.147H94.6761C95.296 156.147 95.8904 155.885 96.3287 155.418C96.767 154.951 97.0132 154.318 97.0132 153.658V150.646C97.0132 149.986 96.767 149.353 96.3287 148.886C95.8904 148.419 95.296 148.157 94.6761 148.157H93.157V156.147Z" fill="#3C1B16"/>
<path d="M136.207 150.72C130.411 159.308 119.707 172.277 105.965 170.335C91.8484 168.369 95.8215 151.442 107.507 144.373C119.193 137.304 119.52 140.714 127.7 132.699C127.723 132.724 142.026 142.108 136.207 150.72Z" fill="#EDBC74"/>
<path d="M108.769 172.401C107.754 172.397 106.739 172.33 105.731 172.202C97.995 171.107 95.9617 166.153 95.4475 163.291C94.1388 156.246 98.9766 147.435 106.666 142.78C109.965 140.709 113.448 138.991 117.066 137.652C120.674 136.433 123.937 134.267 126.554 131.355L127.513 130.384L128.658 131.131C129.032 131.379 137.819 137.229 139.175 144.448C139.432 145.726 139.428 147.048 139.161 148.323C138.895 149.599 138.374 150.799 137.632 151.841C128.401 165.481 118.702 172.401 108.769 172.401ZM127.887 135.063C125.155 137.863 121.851 139.951 118.234 141.162C114.82 142.45 111.526 144.075 108.395 146.016C102.062 149.849 97.8781 157.118 98.8831 162.569C99.631 166.726 103.277 168.095 106.198 168.493C115.804 169.837 125.433 163.515 134.781 149.625C135.232 149.004 135.551 148.287 135.717 147.522C135.882 146.757 135.89 145.963 135.739 145.194C134.991 141.162 130.504 137.055 127.887 135.063Z" fill="#3B1B16"/>
<path d="M39.2634 130.359C39.2634 130.359 23.1139 144.771 29.0502 154.504C34.9864 164.237 40.4319 168.867 53.7534 167.124C63.8498 165.805 59.1755 155.201 57.0955 152.612C55.366 150.496 38.2584 139.071 38.9128 137.055C39.3215 134.851 39.4395 132.597 39.2634 130.359Z" fill="#EDBC74"/>
<path d="M48.6819 169.265C38.1649 169.265 32.9298 164.286 27.6479 155.45C20.8703 144.547 37.3937 129.562 38.1415 128.915L40.7591 126.575L41.0162 130.209C41.1813 132.444 41.095 134.692 40.7591 136.905C44.191 140.159 47.8386 143.146 51.6734 145.842C54.0488 147.514 56.3063 149.369 58.4277 151.392C60.0169 153.384 62.9383 159.258 61.2556 163.838C60.6154 165.325 59.5879 166.584 58.2953 167.467C57.0026 168.349 55.4992 168.818 53.9638 168.817C52.2133 169.08 50.4494 169.23 48.6819 169.265ZM37.5339 134.416C32.9999 139.395 27.1338 147.758 30.5226 153.309C36.155 162.569 41.0629 166.701 53.5665 165.058C55.9036 164.759 57.4694 163.838 58.007 162.37C59.0587 159.457 56.8384 154.902 55.7867 153.633C55.2959 153.035 52.1642 150.671 49.6401 148.779C38.3986 140.34 36.5523 138.474 37.2768 136.333C37.4238 135.773 37.5101 135.196 37.5339 134.615V134.416Z" fill="#3B1B16"/>
</g>
<defs>
<clipPath id="clip0_713_882">
<rect width="165" height="236" fill="white"/>
</clipPath>
</defs>
</svg>
