<svg width="187" height="236" viewBox="0 0 187 236" fill="none" xmlns="http://www.w3.org/2000/svg">
<g clip-path="url(#clip0_713_973)">
<path d="M57.9266 143.155C59.185 138.401 59.5769 133.459 59.0837 128.566C59.0837 128.566 59.0837 129.083 57.8035 130.362C55.5508 133.794 53.8868 137.577 52.8799 141.556L57.9266 143.155Z" fill="#F9CBC6"/>
<path d="M62.0137 194.817L64.8695 214.179C64.8695 214.179 49.8277 218.066 55.6869 227.193C61.546 236.32 97.2178 229.653 97.2178 229.653L102.141 194.719L107.065 228.423C107.065 228.423 138.306 240.305 147.094 229.653C155.883 219.001 139.266 213.687 139.266 213.687L138.306 194.719L135.401 158.358L55.8838 143.155L62.0137 194.817Z" fill="#F9E0AF"/>
<path d="M133.997 236C121.688 236 107.286 230.588 106.4 230.243L105.39 229.85L102.165 207.709L98.8666 231.252L97.5619 231.498C93.7707 232.187 60.4868 237.968 54.1353 228.103C53.3241 227.009 52.7944 225.732 52.5927 224.385C52.3909 223.038 52.5233 221.662 52.9783 220.378C54.6769 216.098 60.0437 213.76 62.8256 212.826L60.216 194.965L53.766 140.842L137.123 156.784L140.151 194.645L141.087 212.457C143.696 213.49 149.728 216.417 151.205 221.461C151.601 223.131 151.564 224.875 151.099 226.528C150.634 228.181 149.756 229.688 148.546 230.908C145.395 234.696 139.954 236 133.997 236ZM108.739 227.168C117.798 230.44 139.388 236.172 145.666 228.595C146.482 227.832 147.092 226.874 147.436 225.811C147.781 224.748 147.849 223.615 147.635 222.519C146.552 218.804 140.816 216.221 138.699 215.532L137.493 215.138L136.459 194.916L133.628 159.908L58.025 145.443L63.8595 194.645L66.9368 215.63L65.312 216.048C63.2687 216.59 57.6803 218.656 56.4248 221.879C56.185 222.619 56.1337 223.407 56.2756 224.171C56.4174 224.936 56.748 225.653 57.2372 226.258C60.9053 231.941 82.1509 230.563 95.5924 228.251L102.067 181.803L108.739 227.168Z" fill="#3B1B16"/>
<path d="M60.6102 159.908C60.6102 159.908 31.3884 150.363 24.1014 145.64C24.1014 145.64 2.28962 150.757 1.94496 133.339C1.94496 133.339 0.935613 122.736 15.8789 121.407C15.8789 121.407 13.1709 109.648 21.1964 110.804C21.1964 110.804 25.997 110.411 26.834 119.415C26.834 119.415 61.2995 131.715 61.0287 134.84C60.7579 137.964 60.6102 159.908 60.6102 159.908Z" fill="#F9E0AE"/>
<path d="M62.4569 162.369L59.9951 161.606C58.8873 161.188 32.0042 152.528 23.7571 147.608C20.9506 148.124 11.3002 149.502 5.14569 144.729C3.47242 143.368 2.13722 141.638 1.2446 139.674C0.351979 137.711 -0.0738371 135.568 0.000484489 133.413C-0.10313 130.438 0.896284 127.529 2.80696 125.245C5.62533 122.167 9.48356 120.239 13.639 119.833C13.3272 118.262 13.3344 116.645 13.66 115.077C13.9857 113.509 14.6231 112.023 15.5346 110.706C16.2601 109.954 17.1641 109.397 18.1626 109.087C19.1611 108.778 20.2218 108.725 21.246 108.935C22.4523 108.935 27.2775 109.599 28.4591 118.037C63.2693 130.485 62.9247 133.536 62.7769 135.012C62.5308 137.472 62.4569 153.734 62.4569 159.761V162.369ZM24.4464 143.672L25.1111 144.09C30.921 147.854 51.6987 154.988 58.7642 157.276C58.7642 151.716 58.7642 138.825 59.0596 135.135C56.5978 132.822 40.719 126.279 26.145 121.112L25.0372 120.719L24.9141 119.538C24.2987 112.674 21.3445 112.576 21.1968 112.576H20.8521C19.055 112.305 18.3903 112.969 18.2426 113.191C16.8393 114.716 17.1101 118.751 17.6025 120.94L18.0703 123.007L15.9777 123.203C14.0608 123.207 12.1638 123.592 10.3971 124.335C8.63046 125.078 7.02944 126.166 5.68729 127.533C4.38007 129.099 3.67319 131.079 3.69322 133.118C3.58252 134.753 3.85919 136.392 4.50078 137.901C5.14237 139.41 6.13082 140.746 7.38595 141.802C13.0974 146.23 23.5601 143.868 23.6586 143.844L24.4464 143.672Z" fill="#2F140C"/>
<path d="M103.765 128.763C103.765 128.763 47.3896 123.72 54.6766 122.711L45.8633 193.465C45.8633 193.465 97.5615 226.037 159.895 193.465L149.481 167.928C149.481 167.928 122.401 112.723 120.998 108.369C119.595 104.014 136.212 113.781 136.212 113.781L66.7642 88.9829L106.153 112.354C106.153 112.354 101.87 126.155 103.765 128.763Z" fill="#BF2B2A"/>
<path d="M103.888 209.677C83.9189 209.758 64.2682 204.673 46.848 194.916L45.8633 194.276L54.4797 124.04C54.3146 123.899 54.1859 123.72 54.1045 123.519C54.0231 123.318 53.9914 123.1 54.0119 122.884C54.0119 122.342 54.1842 121.088 56.2522 120.792L58.714 120.448L58.5417 121.727C65.0163 122.908 87.1234 125.196 102.51 126.648C102.723 122.056 103.551 117.514 104.972 113.141L67.5519 90.4837L68.9306 87.2363L120.629 106.007C121.49 105.343 123.485 103.793 137.492 112.256L135.991 115.626L124.986 111.616C129.418 121.629 142.219 148.641 151.328 167.215L162.234 194.35L160.781 195.138C143.315 204.618 123.765 209.614 103.888 209.677ZM49.7283 192.456C66.3118 201.313 84.8204 205.959 103.624 205.985C122.427 206.011 140.948 201.415 157.556 192.604L147.955 168.617C145.493 163.328 123.337 117.89 120.235 109.796L85.4248 97.126L109.181 111.518L108.787 112.895C106.793 119.538 105.612 126.475 106.326 127.656L108.787 130.904L104.775 130.51C75.7252 127.927 63.3422 126.525 58.0247 125.467L49.7283 192.456Z" fill="#3B1B16"/>
<path d="M62.5546 51.8101C62.5546 51.8101 -0.000299473 69.3016 15.5584 95.9447C15.5584 95.9447 21.8361 107.63 31.4618 111.321C41.0875 115.011 70.5801 57.3207 70.5801 57.3207L62.5546 51.8101Z" fill="#89582F"/>
<path d="M32.1761 113.289C31.706 113.285 31.2398 113.202 30.7975 113.043C20.6302 109.131 14.2048 97.3224 13.934 96.8304C12.4468 94.4948 11.545 91.8353 11.305 89.0774C11.065 86.3194 11.4939 83.5443 12.5554 80.9872C20.2855 61.9212 60.364 50.5062 62.0626 50.0388L62.875 49.8174L72.9685 56.7303L72.23 58.1572C65.4353 71.4665 43.1558 113.289 32.1761 113.289ZM62.235 53.8274C56.622 55.5495 22.4519 66.4232 15.9773 82.3649C15.1388 84.4193 14.8149 86.6472 15.0337 88.8552C15.2525 91.0631 16.0074 93.1843 17.2329 95.0345C17.2329 95.1821 23.3382 106.203 32.1761 109.598C36.9521 111.444 54.5048 84.6036 68.2664 57.9358L62.235 53.8274Z" fill="#3B1B16"/>
<path d="M154.43 123.966C154.43 123.966 157.236 85.4402 145.075 65.3656L52.9042 53.9014C52.9042 53.9014 27.8675 82.3896 34.2928 108.688C34.2928 108.688 41.2844 134.52 78.2117 139.588C115.139 144.655 136.188 138.776 154.43 123.966Z" fill="#F9E0AF"/>
<path d="M101.944 143.204C93.92 143.154 85.9084 142.554 77.9663 141.408C40.2511 136.242 32.8164 110.263 32.521 109.18C25.9233 82.1189 50.4923 53.8767 51.5263 52.5974L52.1664 51.8594L146.183 63.5696L146.651 64.3322C158.96 84.6775 156.498 122.44 156.277 124.015V124.827L155.637 125.319C140.595 137.57 124.125 143.204 101.944 143.204ZM53.6927 55.8448C49.9261 60.4206 30.5269 85.4893 36.0907 108.245C36.3615 109.205 43.2792 132.847 78.4586 137.767C112.161 142.392 133.727 138.136 152.633 123.006C152.929 117.52 154.209 84.9973 143.943 67.0384L53.6927 55.8448Z" fill="#3B1B16"/>
<path d="M138.846 65.021C138.846 65.021 133.923 144.434 170.308 125.712C170.308 125.712 182.125 121.629 184.784 110.361C185.403 107.277 185.234 104.087 184.292 101.086C182.15 92.599 173.435 73.9021 162.135 65.021H138.846Z" fill="#89582F"/>
<path d="M160.141 130.387C157.184 130.418 154.285 129.561 151.82 127.927C134.07 116.389 136.877 66.9892 137.049 64.8735V63.1514H162.652L163.145 63.545C175.06 72.8197 183.922 92.2793 186.04 100.619C187.029 103.907 187.198 107.387 186.532 110.755C183.799 122.342 172.45 126.869 170.998 127.385C167.669 129.233 163.947 130.262 160.141 130.387ZM140.619 66.8662C140.323 75.698 139.61 115.626 153.839 124.876C158.024 127.607 163.145 127.336 169.471 124.064H169.718C169.718 124.064 180.599 120.153 182.987 110.041C183.518 107.247 183.349 104.365 182.494 101.652C180.525 93.8538 172.376 75.8456 161.421 66.9646L140.619 66.8662Z" fill="#3B1B16"/>
<path d="M119.3 16.5319C115.361 15.8923 112.899 15.6955 112.899 15.6955H112.21C96.011 14.7606 54.9478 15.8923 48.7194 51.6626C48.6202 52.4324 48.6799 53.2144 48.8948 53.9604C49.1097 54.7063 49.4752 55.4003 49.9689 55.9996C50.4625 56.599 51.0738 57.0909 51.7649 57.445C52.4561 57.7992 53.2126 58.0081 53.9877 58.0589L106.917 63.422L112.874 63.9386L162.948 68.6128C166.271 69.0311 166.665 67.1368 166.321 63.9632C162.48 27.0613 135.4 19.1643 119.3 16.5319Z" fill="#BF2B2A"/>
<path d="M163.785 70.6547H162.727L104.898 65.2178L53.791 60.0515C52.7104 59.9425 51.6636 59.6134 50.7152 59.0845C49.7667 58.5556 48.9368 57.8381 48.2765 56.9764C47.683 56.2103 47.256 55.3288 47.0228 54.3884C46.7897 53.448 46.7555 52.4693 46.9225 51.5149C53.3479 14.244 94.7557 12.7433 112.284 13.8258H112.924C113.096 13.8258 115.583 14.0226 119.546 14.6868C149.211 19.6071 165.09 35.6225 168.118 63.8893C168.353 64.8531 168.368 65.8572 168.164 66.8278C167.959 67.7984 167.54 68.711 166.936 69.4984C166.08 70.2842 164.947 70.6998 163.785 70.6547ZM108.936 61.8474L113.022 62.2165L163.121 66.9153C164.13 67.0383 164.401 66.9153 164.401 66.9153C164.401 66.9153 164.721 66.4725 164.401 64.3322C161.668 37.935 146.799 22.9036 119.005 18.3524H118.291C114.844 17.8358 112.727 17.6636 112.702 17.6636H112.087C95.5435 16.6303 56.4744 17.9588 50.5414 52.1053C50.4714 52.5679 50.4964 53.0398 50.6149 53.4924C50.7334 53.945 50.9429 54.3687 51.2307 54.7377C51.5805 55.1994 52.0251 55.5809 52.5346 55.8567C53.0441 56.1325 53.6068 56.2962 54.1849 56.3367L108.936 61.8966V61.8474Z" fill="#3B1B16"/>
<path d="M119.669 23.6418C118.17 23.0284 116.969 21.8555 116.321 20.372C115.673 18.8885 115.629 17.2111 116.198 15.6956C118.66 9.47145 123.312 0.639596 130.722 1.96807C138.133 3.29653 139.413 10.0619 139.29 14.2687C139.277 15.2212 139.049 16.1584 138.622 17.0104C138.196 17.8624 137.582 18.6071 136.828 19.189L129.664 24.4044C128.803 25.0659 127.784 25.4892 126.708 25.6317C125.632 25.7742 124.537 25.6309 123.534 25.2163L119.669 23.6418Z" fill="#BF2B2A"/>
<path d="M125.873 27.5289C124.825 27.5315 123.786 27.3223 122.82 26.9138L118.98 25.3393C117.038 24.54 115.483 23.0183 114.643 21.0952C113.802 19.1721 113.742 16.998 114.475 15.0314C118.611 4.25605 124.495 -1.03322 131.043 0.270646C137.591 1.57451 141.383 6.59317 141.136 14.318C141.069 15.5086 140.741 16.67 140.175 17.72C139.61 18.77 138.82 19.683 137.862 20.3945L130.723 25.8806C129.325 26.9351 127.625 27.513 125.873 27.5289ZM129.27 3.69022C123.658 3.69022 119.792 11.4888 117.921 16.3599C117.532 17.4248 117.57 18.5994 118.029 19.6363C118.489 20.6733 119.332 21.4919 120.383 21.9198L124.224 23.5188C124.932 23.7987 125.701 23.8915 126.455 23.788C127.21 23.6846 127.925 23.3886 128.532 22.9284L135.696 17.4669C136.221 17.066 136.65 16.5533 136.952 15.9661C137.255 15.379 137.423 14.732 137.444 14.072C137.641 8.14305 135.4 4.67427 130.477 3.78863C130.079 3.71549 129.675 3.68252 129.27 3.69022Z" fill="#3B1B16"/>
<path d="M108.222 100.103C111.689 100.103 114.5 97.283 114.5 93.8048C114.5 90.3265 111.689 87.5068 108.222 87.5068C104.755 87.5068 101.944 90.3265 101.944 93.8048C101.944 97.283 104.755 100.103 108.222 100.103Z" fill="#3C1B16"/>
<path d="M69.0784 96.4616C72.5455 96.4616 75.3561 93.6419 75.3561 90.1637C75.3561 86.6854 72.5455 83.8657 69.0784 83.8657C65.6114 83.8657 62.8008 86.6854 62.8008 90.1637C62.8008 93.6419 65.6114 96.4616 69.0784 96.4616Z" fill="#3C1B16"/>
<path d="M88.7975 110.066C93.1348 110.066 96.6508 107.5 96.6508 104.334C96.6508 101.168 93.1348 98.6021 88.7975 98.6021C84.4603 98.6021 80.9443 101.168 80.9443 104.334C80.9443 107.5 84.4603 110.066 88.7975 110.066Z" fill="#3C1B16"/>
<path d="M95.4446 116.487H95.2969C92.619 116.251 90.1423 114.969 88.4038 112.92C87.3164 113.83 86.0452 114.495 84.677 114.868C83.3089 115.242 81.8761 115.316 80.4767 115.085C78.9913 114.641 77.6248 113.868 76.4785 112.825C75.3322 111.782 74.4354 110.494 73.8544 109.058C73.8016 108.904 73.7809 108.742 73.7937 108.58C73.8065 108.419 73.8524 108.261 73.9286 108.118C74.0048 107.975 74.1097 107.849 74.2367 107.749C74.3637 107.648 74.5101 107.574 74.6668 107.532C74.9849 107.428 75.3303 107.443 75.6384 107.574C75.9464 107.705 76.1961 107.944 76.3408 108.246C76.3408 108.246 77.9164 112.084 81.0183 112.772C82.2364 112.889 83.4651 112.728 84.612 112.302C85.759 111.876 86.7944 111.196 87.6406 110.312L88.7977 109.328L89.6593 110.534C90.3058 111.471 91.1333 112.269 92.093 112.881C93.0527 113.494 94.1252 113.909 95.2476 114.101C96.3679 114.028 97.4528 113.68 98.4062 113.088C99.3596 112.496 100.152 111.678 100.713 110.706C100.931 110.439 101.239 110.261 101.58 110.206C101.92 110.152 102.269 110.225 102.559 110.411C102.698 110.49 102.818 110.598 102.911 110.727C103.004 110.857 103.067 111.005 103.098 111.161C103.128 111.318 103.124 111.479 103.087 111.634C103.049 111.789 102.978 111.934 102.879 112.059C102.075 113.329 100.983 114.391 99.6911 115.16C98.3995 115.93 96.9447 116.384 95.4446 116.487Z" fill="#3C1B16"/>
<path d="M146.971 44.9712C151.731 46.5531 156.82 46.8752 161.742 45.906Z" fill="#BF2B2A"/>
<path d="M156.572 48.3908C153.101 48.3795 149.654 47.8232 146.356 46.7425C146.111 46.6753 145.883 46.5585 145.685 46.3992C145.488 46.24 145.325 46.0418 145.208 45.8169C145.09 45.5921 145.02 45.3455 145.003 45.0925C144.985 44.8395 145.019 44.5856 145.104 44.3466C145.189 44.1076 145.322 43.8886 145.496 43.7033C145.669 43.518 145.879 43.3705 146.111 43.2698C146.344 43.1691 146.596 43.1175 146.849 43.1182C147.103 43.1188 147.354 43.1718 147.586 43.2737C152.023 44.7387 156.76 45.0436 161.348 44.1594C161.586 44.0876 161.835 44.0645 162.082 44.0914C162.329 44.1182 162.568 44.1946 162.784 44.3158C163.001 44.437 163.191 44.6006 163.343 44.7968C163.494 44.9931 163.605 45.2179 163.668 45.4578C163.731 45.6978 163.745 45.948 163.709 46.1934C163.673 46.4389 163.588 46.6745 163.458 46.8863C163.329 47.0981 163.158 47.2817 162.957 47.426C162.755 47.5704 162.526 47.6726 162.283 47.7265C160.417 48.198 158.497 48.4213 156.572 48.3908Z" fill="#3B1B16"/>
<path d="M151.106 51.9331C155.18 52.9958 159.427 53.2135 163.588 52.5727Z" fill="#BF2B2A"/>
<path d="M159.428 54.8607C156.465 54.8121 153.517 54.4325 150.639 53.729C150.405 53.6663 150.185 53.5579 149.992 53.4101C149.8 53.2623 149.638 53.078 149.517 52.8678C149.396 52.6576 149.317 52.4255 149.286 52.1849C149.255 51.9444 149.271 51.6999 149.334 51.4657C149.394 51.2323 149.5 51.0131 149.646 50.8209C149.791 50.6287 149.973 50.4673 150.182 50.346C150.39 50.2247 150.621 50.146 150.86 50.1144C151.099 50.0828 151.342 50.0989 151.575 50.1619C155.353 51.1281 159.286 51.3371 163.145 50.7769C163.621 50.6649 164.123 50.7438 164.542 50.9967C164.96 51.2497 165.263 51.6565 165.385 52.13C165.444 52.3658 165.456 52.611 165.42 52.8513C165.383 53.0917 165.3 53.3225 165.174 53.5305C165.048 53.7386 164.883 53.9197 164.686 54.0635C164.49 54.2074 164.268 54.3111 164.031 54.3687C162.523 54.7198 160.977 54.885 159.428 54.8607Z" fill="#3B1B16"/>
<path d="M79.6398 114.101C79.6398 114.101 78.3597 126.992 88.0593 126.746C97.7588 126.5 96.5772 115.626 96.5772 115.626C96.5772 115.626 89.3886 115.331 88.7978 111.591C85.9502 113.048 82.8326 113.902 79.6398 114.101Z" fill="#3C1B16"/>
<path d="M81.4619 118.406C81.4619 118.406 88.4535 113.83 94.7558 116.487C94.7558 116.487 95.125 124.433 89.2167 125.171C87.2972 125.274 85.4134 124.625 83.9655 123.361C82.5175 122.098 81.6194 120.32 81.4619 118.406Z" fill="#E36549"/>
<path d="M77.646 129.452C77.646 129.452 70.2605 121.825 66.1985 125.147C62.1365 128.468 64.0075 139.071 64.0075 139.071C64.0075 139.071 46.7747 158.973 67.971 179.22C67.971 179.22 66.9863 190.315 74.2979 188.839C81.6095 187.363 80.1078 183.353 80.1078 183.353C86.8154 184.427 93.6556 184.368 100.344 183.181C100.344 183.181 102.166 189.946 107.729 188.962C113.293 187.978 113.244 180.204 113.244 180.204C113.244 180.204 136.139 158.063 119.054 137.915C119.054 137.915 120.703 125.786 115.558 124.31C110.413 122.834 107.262 129.944 107.262 129.944C107.262 129.944 90.1028 118.332 77.646 129.452Z" fill="#F9CBC6"/>
<path d="M106.474 190.291C104.848 190.15 103.302 189.524 102.037 188.492C100.772 187.461 99.8479 186.073 99.384 184.509C93.3944 185.45 87.3005 185.525 81.2897 184.731C81.2078 185.273 81.0329 185.798 80.7727 186.281C80.0431 187.317 79.0977 188.184 78.0013 188.821C76.9049 189.458 75.6836 189.85 74.4212 189.971C73.5322 190.209 72.5986 190.225 71.7017 190.019C70.8048 189.814 69.972 189.391 69.276 188.79C66.568 186.33 66.5187 181.41 66.5926 179.638C47.1688 160.671 60.1426 141.826 62.5798 138.653C62.2105 136.192 61.275 127.434 65.4355 124.113C69.596 120.792 75.5044 125.688 77.7446 127.73C88.6997 118.947 102.806 125.811 106.893 128.148C108.197 125.934 111.349 121.702 116.026 123.055C121.516 124.63 120.753 134.741 120.457 137.472C136.287 156.685 117.355 177.744 114.549 180.672C114.377 182.541 113.343 189.11 107.754 190.094C107.337 190.21 106.907 190.276 106.474 190.291ZM101.107 181.779L101.403 182.861C101.403 183.107 103.003 188.495 107.311 187.781C111.619 187.068 112.112 180.253 112.112 180.179V179.589L112.456 179.245C113.343 178.384 134.317 157.596 118.192 138.628L117.823 138.21V137.669C118.217 134.79 118.586 126.377 115.214 125.368C111.176 124.187 108.419 130.288 108.394 130.288L107.803 131.617L106.573 130.805C106.4 130.682 89.9553 119.857 78.3847 130.19L77.4984 131.002L76.7599 130.387C75.0612 128.615 69.6452 124.039 66.9126 126.18C64.18 128.32 64.5739 136.192 65.0416 138.948V139.514L64.6724 139.956C63.983 140.744 48.4489 159.244 68.562 178.384L68.9805 178.802V179.392C68.9805 180.967 68.9805 185.42 70.8269 187.117C71.2415 187.453 71.7319 187.682 72.2553 187.785C72.7788 187.888 73.3195 187.861 73.8303 187.708C76.9322 187.068 78.0893 186.01 78.5078 185.247C78.7568 184.834 78.8362 184.34 78.7294 183.87L77.9662 181.803L80.108 182.221C86.6376 183.247 93.2919 183.189 99.8026 182.049L101.107 181.779Z" fill="#3C1B16"/>
<path d="M87.5174 162.787C92.9695 162.787 97.3893 159.802 97.3893 156.12C97.3893 152.438 92.9695 149.453 87.5174 149.453C82.0653 149.453 77.6455 152.438 77.6455 156.12C77.6455 159.802 82.0653 162.787 87.5174 162.787Z" fill="#F9CBC6"/>
<path d="M87.5177 164.017C81.24 164.017 76.3164 160.548 76.3164 156.12C76.3164 151.691 81.24 148.223 87.4192 148.223C93.5984 148.223 98.522 151.691 98.522 156.12C98.522 160.548 93.7461 164.017 87.5177 164.017ZM87.5177 150.683C82.8402 150.683 78.8767 153.143 78.8767 156.12C78.8767 159.096 82.8402 161.557 87.5177 161.557C92.1952 161.557 96.1587 159.096 96.1587 156.12C96.1587 153.143 92.2198 150.683 87.5177 150.683Z" fill="#3C1B16"/>
<path d="M74.9629 150.437C76.4585 150.437 77.6709 149.225 77.6709 147.731C77.6709 146.236 76.4585 145.024 74.9629 145.024C73.4673 145.024 72.2549 146.236 72.2549 147.731C72.2549 149.225 73.4673 150.437 74.9629 150.437Z" fill="#3C1B16"/>
<path d="M101.846 150.437C103.341 150.437 104.554 149.225 104.554 147.731C104.554 146.236 103.341 145.024 101.846 145.024C100.35 145.024 99.1377 146.236 99.1377 147.731C99.1377 149.225 100.35 150.437 101.846 150.437Z" fill="#3C1B16"/>
<path d="M97.3895 131.174H96.9709C92.392 129.501 83.9479 131.174 83.874 131.174C83.7171 131.21 83.5546 131.214 83.396 131.187C83.2374 131.159 83.0859 131.1 82.9505 131.013C82.8152 130.926 82.6986 130.812 82.6078 130.679C82.5169 130.547 82.4536 130.397 82.4216 130.239C82.3856 130.079 82.382 129.914 82.411 129.752C82.44 129.591 82.501 129.437 82.5905 129.299C82.6799 129.161 82.796 129.043 82.9319 128.951C83.0678 128.859 83.2207 128.795 83.3817 128.763C83.751 128.763 92.5889 126.893 97.8326 128.763C97.9816 128.827 98.1165 128.92 98.2295 129.037C98.3424 129.153 98.4312 129.291 98.4906 129.442C98.5501 129.593 98.5792 129.754 98.5761 129.916C98.573 130.078 98.5378 130.238 98.4727 130.387C98.3901 130.61 98.2432 130.804 98.0504 130.944C97.8576 131.085 97.6276 131.164 97.3895 131.174Z" fill="#3C1B16"/>
<path d="M83.6283 158.284C84.1721 158.284 84.613 157.315 84.613 156.119C84.613 154.924 84.1721 153.955 83.6283 153.955C83.0844 153.955 82.6436 154.924 82.6436 156.119C82.6436 157.315 83.0844 158.284 83.6283 158.284Z" fill="#3C1B16"/>
<path d="M90.5209 158.284C91.0647 158.284 91.5056 157.315 91.5056 156.119C91.5056 154.924 91.0647 153.955 90.5209 153.955C89.977 153.955 89.5361 154.924 89.5361 156.119C89.5361 157.315 89.977 158.284 90.5209 158.284Z" fill="#3C1B16"/>
<path d="M110.413 133.019C110.268 132.9 110.17 132.734 110.134 132.55C110.098 132.366 110.127 132.176 110.216 132.011C110.88 130.682 112.85 127.213 114.696 127.238C116.543 127.263 116.592 130.879 116.666 133.191C116.674 133.426 116.627 133.66 116.528 133.874C116.429 134.087 116.282 134.274 116.097 134.421C115.913 134.567 115.697 134.667 115.466 134.714C115.236 134.762 114.997 134.754 114.77 134.692C113.234 134.382 111.761 133.816 110.413 133.019Z" fill="#F7B6AE"/>
<path d="M69.9652 135.971C69.7501 136.078 69.5135 136.134 69.2734 136.135C69.0333 136.136 68.7962 136.082 68.58 135.978C68.3639 135.873 68.1745 135.721 68.0263 135.532C67.8781 135.344 67.7751 135.123 67.725 134.889C67.3065 132.773 66.888 129.624 68.1927 129.206C69.4975 128.788 71.787 130.953 73.1164 132.478C73.2603 132.634 73.3654 132.822 73.4232 133.026C73.481 133.231 73.4899 133.446 73.4492 133.654C73.4084 133.862 73.3192 134.058 73.1887 134.226C73.0582 134.393 72.89 134.528 72.6979 134.618L69.9652 135.971Z" fill="#F6B2A8"/>
<path d="M113.638 151.568C107.163 152.971 96.9714 156.488 99.2855 168.051C101.6 179.614 114.056 179.269 126.366 172.725C138.675 166.181 143.451 163.229 144.928 153.044C144.928 153.044 139.758 134.47 134.687 135.823C134.687 135.823 131.314 140.055 126.612 144.975C122.958 148.297 118.477 150.575 113.638 151.568Z" fill="#F9E0AE"/>
<path d="M110.782 179.146C108.509 179.197 106.254 178.734 104.185 177.793C102.371 176.897 100.802 175.573 99.6143 173.936C98.4263 172.298 97.6545 170.397 97.3654 168.396C96.036 161.729 97.6855 153.094 113.17 149.772C117.642 148.874 121.801 146.821 125.233 143.819C128.975 139.932 131.757 136.439 132.816 135.233C133.357 134.569 133.554 134.323 134.145 134.175C134.684 134.024 135.249 133.986 135.804 134.062C136.358 134.138 136.892 134.327 137.37 134.618C142.294 137.324 145.962 150.068 146.651 152.577V152.946V153.34C145.051 164.41 139.512 167.781 127.129 174.349C122.139 177.225 116.535 178.869 110.782 179.146ZM135.598 137.767C134.465 139.145 131.634 142.687 128.015 146.353C124.077 149.91 119.242 152.325 114.032 153.34C103.84 155.529 99.6057 160.228 101.083 167.658C101.259 169.097 101.787 170.472 102.62 171.66C103.453 172.848 104.565 173.814 105.859 174.472C110.241 176.539 117.626 175.284 125.553 171.077C137.69 164.656 141.703 162.147 143.081 153.192C141.481 147.534 138.158 139.243 135.696 137.841L135.598 137.767Z" fill="#2F140C"/>
</g>
<defs>
<clipPath id="clip0_713_973">
<rect width="187" height="236" fill="white"/>
</clipPath>
</defs>
</svg>
