<svg width="30" height="30" viewBox="0 0 30 30" fill="none" xmlns="http://www.w3.org/2000/svg">
<circle cx="15" cy="15" r="15" fill="#3B1B16"/>
<path d="M23.9864 11.0978C23.774 10.3013 23.1501 9.67742 22.3669 9.46503C20.9333 9.08008 15.212 9.08008 15.212 9.08008C15.212 9.08008 9.47751 9.08008 8.05716 9.46503C7.27397 9.67742 6.65008 10.3013 6.43769 11.0978C6.05273 12.5314 6.05273 15.5314 6.05273 15.5314C6.05273 15.5314 6.05273 18.5314 6.43769 19.965C6.65008 20.7615 7.27397 21.3854 8.05716 21.5978C9.49079 21.9827 15.212 21.9827 15.212 21.9827C15.212 21.9827 20.9465 21.9827 22.3669 21.5978C23.1501 21.3854 23.774 20.7615 23.9864 19.965C24.3713 18.5314 24.3713 15.5314 24.3713 15.5314C24.3713 15.5314 24.3713 12.5314 23.9864 11.0978ZM13.3403 18.2526V12.8102L18.1324 15.5314L13.3403 18.2526Z" fill="white"/>
</svg>
